<?xml version="1.0" encoding="utf-8" standalone="no"?>
<!DOCTYPE svg PUBLIC "-//W3C//DTD SVG 1.1//EN"
  "http://www.w3.org/Graphics/SVG/1.1/DTD/svg11.dtd">
<svg xmlns:xlink="http://www.w3.org/1999/xlink" width="338.391094pt" height="208.202188pt" viewBox="0 0 338.391094 208.202188" xmlns="http://www.w3.org/2000/svg" version="1.1">
 <metadata>
  <rdf:RDF xmlns:dc="http://purl.org/dc/elements/1.1/" xmlns:cc="http://creativecommons.org/ns#" xmlns:rdf="http://www.w3.org/1999/02/22-rdf-syntax-ns#">
   <cc:Work>
    <dc:type rdf:resource="http://purl.org/dc/dcmitype/StillImage"/>
    <dc:date>2024-01-26T13:25:59.598447</dc:date>
    <dc:format>image/svg+xml</dc:format>
    <dc:creator>
     <cc:Agent>
      <dc:title>Matplotlib v3.7.2, https://matplotlib.org/</dc:title>
     </cc:Agent>
    </dc:creator>
   </cc:Work>
  </rdf:RDF>
 </metadata>
 <defs>
  <style type="text/css">*{stroke-linejoin: round; stroke-linecap: butt}</style>
 </defs>
 <g id="figure_1">
  <g id="patch_1">
   <path d="M 0 208.202188 
L 338.391094 208.202188 
L 338.391094 0 
L 0 0 
z
" style="fill: #ffffff"/>
  </g>
  <g id="axes_1">
   <g id="patch_2">
    <path d="M 52.191094 173.52 
L 331.191094 173.52 
L 331.191094 7.2 
L 52.191094 7.2 
z
" style="fill: #ffffff"/>
   </g>
   <g id="matplotlib.axis_1">
    <g id="xtick_1">
     <g id="line2d_1">
      <defs>
       <path id="mbc33ed76ec" d="M 0 0 
L 0 -3.5 
" style="stroke: #000000; stroke-width: 0.8"/>
      </defs>
      <g>
       <use xlink:href="#mbc33ed76ec" x="64.872912" y="173.52" style="stroke: #000000; stroke-width: 0.8"/>
      </g>
     </g>
     <g id="text_1">
      <!-- 2022 -->
      <g transform="translate(53.872912 184.658125) scale(0.11 -0.11)">
       <defs>
        <path id="TimesNewRomanPSMT-32" d="M 2934 816 
L 2638 0 
L 138 0 
L 138 116 
Q 1241 1122 1691 1759 
Q 2141 2397 2141 2925 
Q 2141 3328 1894 3587 
Q 1647 3847 1303 3847 
Q 991 3847 742 3664 
Q 494 3481 375 3128 
L 259 3128 
Q 338 3706 661 4015 
Q 984 4325 1469 4325 
Q 1984 4325 2329 3994 
Q 2675 3663 2675 3213 
Q 2675 2891 2525 2569 
Q 2294 2063 1775 1497 
Q 997 647 803 472 
L 1909 472 
Q 2247 472 2383 497 
Q 2519 522 2628 598 
Q 2738 675 2819 816 
L 2934 816 
z
" transform="scale(0.015625)"/>
        <path id="TimesNewRomanPSMT-30" d="M 231 2094 
Q 231 2819 450 3342 
Q 669 3866 1031 4122 
Q 1313 4325 1613 4325 
Q 2100 4325 2488 3828 
Q 2972 3213 2972 2159 
Q 2972 1422 2759 906 
Q 2547 391 2217 158 
Q 1888 -75 1581 -75 
Q 975 -75 572 641 
Q 231 1244 231 2094 
z
M 844 2016 
Q 844 1141 1059 588 
Q 1238 122 1591 122 
Q 1759 122 1940 273 
Q 2122 425 2216 781 
Q 2359 1319 2359 2297 
Q 2359 3022 2209 3506 
Q 2097 3866 1919 4016 
Q 1791 4119 1609 4119 
Q 1397 4119 1231 3928 
Q 1006 3669 925 3112 
Q 844 2556 844 2016 
z
" transform="scale(0.015625)"/>
       </defs>
       <use xlink:href="#TimesNewRomanPSMT-32"/>
       <use xlink:href="#TimesNewRomanPSMT-30" x="50"/>
       <use xlink:href="#TimesNewRomanPSMT-32" x="100"/>
       <use xlink:href="#TimesNewRomanPSMT-32" x="150"/>
      </g>
     </g>
    </g>
    <g id="xtick_2">
     <g id="line2d_2">
      <g>
       <use xlink:href="#mbc33ed76ec" x="191.042223" y="173.52" style="stroke: #000000; stroke-width: 0.8"/>
      </g>
     </g>
     <g id="text_2">
      <!-- 2023 -->
      <g transform="translate(180.042223 184.658125) scale(0.11 -0.11)">
       <defs>
        <path id="TimesNewRomanPSMT-33" d="M 325 3431 
Q 506 3859 782 4092 
Q 1059 4325 1472 4325 
Q 1981 4325 2253 3994 
Q 2459 3747 2459 3466 
Q 2459 3003 1878 2509 
Q 2269 2356 2469 2072 
Q 2669 1788 2669 1403 
Q 2669 853 2319 450 
Q 1863 -75 997 -75 
Q 569 -75 414 31 
Q 259 138 259 259 
Q 259 350 332 419 
Q 406 488 509 488 
Q 588 488 669 463 
Q 722 447 909 348 
Q 1097 250 1169 231 
Q 1284 197 1416 197 
Q 1734 197 1970 444 
Q 2206 691 2206 1028 
Q 2206 1275 2097 1509 
Q 2016 1684 1919 1775 
Q 1784 1900 1550 2001 
Q 1316 2103 1072 2103 
L 972 2103 
L 972 2197 
Q 1219 2228 1467 2375 
Q 1716 2522 1828 2728 
Q 1941 2934 1941 3181 
Q 1941 3503 1739 3701 
Q 1538 3900 1238 3900 
Q 753 3900 428 3381 
L 325 3431 
z
" transform="scale(0.015625)"/>
       </defs>
       <use xlink:href="#TimesNewRomanPSMT-32"/>
       <use xlink:href="#TimesNewRomanPSMT-30" x="50"/>
       <use xlink:href="#TimesNewRomanPSMT-32" x="100"/>
       <use xlink:href="#TimesNewRomanPSMT-33" x="150"/>
      </g>
     </g>
    </g>
    <g id="xtick_3">
     <g id="line2d_3">
      <g>
       <use xlink:href="#mbc33ed76ec" x="317.211534" y="173.52" style="stroke: #000000; stroke-width: 0.8"/>
      </g>
     </g>
     <g id="text_3">
      <!-- 2024 -->
      <g transform="translate(306.211534 184.658125) scale(0.11 -0.11)">
       <defs>
        <path id="TimesNewRomanPSMT-34" d="M 2978 1563 
L 2978 1119 
L 2409 1119 
L 2409 0 
L 1894 0 
L 1894 1119 
L 100 1119 
L 100 1519 
L 2066 4325 
L 2409 4325 
L 2409 1563 
L 2978 1563 
z
M 1894 1563 
L 1894 3666 
L 406 1563 
L 1894 1563 
z
" transform="scale(0.015625)"/>
       </defs>
       <use xlink:href="#TimesNewRomanPSMT-32"/>
       <use xlink:href="#TimesNewRomanPSMT-30" x="50"/>
       <use xlink:href="#TimesNewRomanPSMT-32" x="100"/>
       <use xlink:href="#TimesNewRomanPSMT-34" x="150"/>
      </g>
     </g>
    </g>
    <g id="text_4">
     <!-- Year -->
     <g transform="translate(181.554766 198.649219) scale(0.11 -0.11)">
      <defs>
       <path id="TimesNewRomanPSMT-59" d="M 3050 4238 
L 4528 4238 
L 4528 4122 
L 4447 4122 
Q 4366 4122 4209 4050 
Q 4053 3978 3925 3843 
Q 3797 3709 3609 3406 
L 2588 1797 
L 2588 734 
Q 2588 344 2675 247 
Q 2794 116 3050 116 
L 3188 116 
L 3188 0 
L 1388 0 
L 1388 116 
L 1538 116 
Q 1806 116 1919 278 
Q 1988 378 1988 734 
L 1988 1738 
L 825 3513 
Q 619 3825 545 3903 
Q 472 3981 241 4091 
Q 178 4122 59 4122 
L 59 4238 
L 1872 4238 
L 1872 4122 
L 1778 4122 
Q 1631 4122 1507 4053 
Q 1384 3984 1384 3847 
Q 1384 3734 1575 3441 
L 2459 2075 
L 3291 3381 
Q 3478 3675 3478 3819 
Q 3478 3906 3433 3975 
Q 3388 4044 3303 4083 
Q 3219 4122 3050 4122 
L 3050 4238 
z
" transform="scale(0.015625)"/>
       <path id="TimesNewRomanPSMT-65" d="M 681 1784 
Q 678 1147 991 784 
Q 1303 422 1725 422 
Q 2006 422 2214 576 
Q 2422 731 2563 1106 
L 2659 1044 
Q 2594 616 2278 264 
Q 1963 -88 1488 -88 
Q 972 -88 605 314 
Q 238 716 238 1394 
Q 238 2128 614 2539 
Q 991 2950 1559 2950 
Q 2041 2950 2350 2633 
Q 2659 2316 2659 1784 
L 681 1784 
z
M 681 1966 
L 2006 1966 
Q 1991 2241 1941 2353 
Q 1863 2528 1708 2628 
Q 1553 2728 1384 2728 
Q 1125 2728 920 2526 
Q 716 2325 681 1966 
z
" transform="scale(0.015625)"/>
       <path id="TimesNewRomanPSMT-61" d="M 1822 413 
Q 1381 72 1269 19 
Q 1100 -59 909 -59 
Q 613 -59 420 144 
Q 228 347 228 678 
Q 228 888 322 1041 
Q 450 1253 767 1440 
Q 1084 1628 1822 1897 
L 1822 2009 
Q 1822 2438 1686 2597 
Q 1550 2756 1291 2756 
Q 1094 2756 978 2650 
Q 859 2544 859 2406 
L 866 2225 
Q 866 2081 792 2003 
Q 719 1925 600 1925 
Q 484 1925 411 2006 
Q 338 2088 338 2228 
Q 338 2497 613 2722 
Q 888 2947 1384 2947 
Q 1766 2947 2009 2819 
Q 2194 2722 2281 2516 
Q 2338 2381 2338 1966 
L 2338 994 
Q 2338 584 2353 492 
Q 2369 400 2405 369 
Q 2441 338 2488 338 
Q 2538 338 2575 359 
Q 2641 400 2828 588 
L 2828 413 
Q 2478 -56 2159 -56 
Q 2006 -56 1915 50 
Q 1825 156 1822 413 
z
M 1822 616 
L 1822 1706 
Q 1350 1519 1213 1441 
Q 966 1303 859 1153 
Q 753 1003 753 825 
Q 753 600 887 451 
Q 1022 303 1197 303 
Q 1434 303 1822 616 
z
" transform="scale(0.015625)"/>
       <path id="TimesNewRomanPSMT-72" d="M 1038 2947 
L 1038 2303 
Q 1397 2947 1775 2947 
Q 1947 2947 2059 2842 
Q 2172 2738 2172 2600 
Q 2172 2478 2090 2393 
Q 2009 2309 1897 2309 
Q 1788 2309 1652 2417 
Q 1516 2525 1450 2525 
Q 1394 2525 1328 2463 
Q 1188 2334 1038 2041 
L 1038 669 
Q 1038 431 1097 309 
Q 1138 225 1241 169 
Q 1344 113 1538 113 
L 1538 0 
L 72 0 
L 72 113 
Q 291 113 397 181 
Q 475 231 506 341 
Q 522 394 522 644 
L 522 1753 
Q 522 2253 501 2348 
Q 481 2444 426 2487 
Q 372 2531 291 2531 
Q 194 2531 72 2484 
L 41 2597 
L 906 2947 
L 1038 2947 
z
" transform="scale(0.015625)"/>
      </defs>
      <use xlink:href="#TimesNewRomanPSMT-59"/>
      <use xlink:href="#TimesNewRomanPSMT-65" x="62.216797"/>
      <use xlink:href="#TimesNewRomanPSMT-61" x="106.601562"/>
      <use xlink:href="#TimesNewRomanPSMT-72" x="150.986328"/>
     </g>
    </g>
   </g>
   <g id="matplotlib.axis_2">
    <g id="ytick_1">
     <g id="line2d_4">
      <defs>
       <path id="m508e6ffbde" d="M 0 0 
L 3.5 0 
" style="stroke: #000000; stroke-width: 0.8"/>
      </defs>
      <g>
       <use xlink:href="#m508e6ffbde" x="52.191094" y="167.545629" style="stroke: #000000; stroke-width: 0.8"/>
      </g>
     </g>
     <g id="text_5">
      <!-- 10000 -->
      <g transform="translate(21.191094 171.364691) scale(0.11 -0.11)">
       <defs>
        <path id="TimesNewRomanPSMT-31" d="M 750 3822 
L 1781 4325 
L 1884 4325 
L 1884 747 
Q 1884 391 1914 303 
Q 1944 216 2037 169 
Q 2131 122 2419 116 
L 2419 0 
L 825 0 
L 825 116 
Q 1125 122 1212 167 
Q 1300 213 1334 289 
Q 1369 366 1369 747 
L 1369 3034 
Q 1369 3497 1338 3628 
Q 1316 3728 1258 3775 
Q 1200 3822 1119 3822 
Q 1003 3822 797 3725 
L 750 3822 
z
" transform="scale(0.015625)"/>
       </defs>
       <use xlink:href="#TimesNewRomanPSMT-31"/>
       <use xlink:href="#TimesNewRomanPSMT-30" x="50"/>
       <use xlink:href="#TimesNewRomanPSMT-30" x="100"/>
       <use xlink:href="#TimesNewRomanPSMT-30" x="150"/>
       <use xlink:href="#TimesNewRomanPSMT-30" x="200"/>
      </g>
     </g>
    </g>
    <g id="ytick_2">
     <g id="line2d_5">
      <g>
       <use xlink:href="#m508e6ffbde" x="52.191094" y="142.439572" style="stroke: #000000; stroke-width: 0.8"/>
      </g>
     </g>
     <g id="text_6">
      <!-- 11000 -->
      <g transform="translate(21.603594 146.258635) scale(0.11 -0.11)">
       <use xlink:href="#TimesNewRomanPSMT-31"/>
       <use xlink:href="#TimesNewRomanPSMT-31" x="46.25"/>
       <use xlink:href="#TimesNewRomanPSMT-30" x="96.25"/>
       <use xlink:href="#TimesNewRomanPSMT-30" x="146.25"/>
       <use xlink:href="#TimesNewRomanPSMT-30" x="196.25"/>
      </g>
     </g>
    </g>
    <g id="ytick_3">
     <g id="line2d_6">
      <g>
       <use xlink:href="#m508e6ffbde" x="52.191094" y="117.333516" style="stroke: #000000; stroke-width: 0.8"/>
      </g>
     </g>
     <g id="text_7">
      <!-- 12000 -->
      <g transform="translate(21.191094 121.152578) scale(0.11 -0.11)">
       <use xlink:href="#TimesNewRomanPSMT-31"/>
       <use xlink:href="#TimesNewRomanPSMT-32" x="50"/>
       <use xlink:href="#TimesNewRomanPSMT-30" x="100"/>
       <use xlink:href="#TimesNewRomanPSMT-30" x="150"/>
       <use xlink:href="#TimesNewRomanPSMT-30" x="200"/>
      </g>
     </g>
    </g>
    <g id="ytick_4">
     <g id="line2d_7">
      <g>
       <use xlink:href="#m508e6ffbde" x="52.191094" y="92.227459" style="stroke: #000000; stroke-width: 0.8"/>
      </g>
     </g>
     <g id="text_8">
      <!-- 13000 -->
      <g transform="translate(21.191094 96.046522) scale(0.11 -0.11)">
       <use xlink:href="#TimesNewRomanPSMT-31"/>
       <use xlink:href="#TimesNewRomanPSMT-33" x="50"/>
       <use xlink:href="#TimesNewRomanPSMT-30" x="100"/>
       <use xlink:href="#TimesNewRomanPSMT-30" x="150"/>
       <use xlink:href="#TimesNewRomanPSMT-30" x="200"/>
      </g>
     </g>
    </g>
    <g id="ytick_5">
     <g id="line2d_8">
      <g>
       <use xlink:href="#m508e6ffbde" x="52.191094" y="67.121402" style="stroke: #000000; stroke-width: 0.8"/>
      </g>
     </g>
     <g id="text_9">
      <!-- 14000 -->
      <g transform="translate(21.191094 70.940465) scale(0.11 -0.11)">
       <use xlink:href="#TimesNewRomanPSMT-31"/>
       <use xlink:href="#TimesNewRomanPSMT-34" x="50"/>
       <use xlink:href="#TimesNewRomanPSMT-30" x="100"/>
       <use xlink:href="#TimesNewRomanPSMT-30" x="150"/>
       <use xlink:href="#TimesNewRomanPSMT-30" x="200"/>
      </g>
     </g>
    </g>
    <g id="ytick_6">
     <g id="line2d_9">
      <g>
       <use xlink:href="#m508e6ffbde" x="52.191094" y="42.015346" style="stroke: #000000; stroke-width: 0.8"/>
      </g>
     </g>
     <g id="text_10">
      <!-- 15000 -->
      <g transform="translate(21.191094 45.834408) scale(0.11 -0.11)">
       <defs>
        <path id="TimesNewRomanPSMT-35" d="M 2778 4238 
L 2534 3706 
L 1259 3706 
L 981 3138 
Q 1809 3016 2294 2522 
Q 2709 2097 2709 1522 
Q 2709 1188 2573 903 
Q 2438 619 2231 419 
Q 2025 219 1772 97 
Q 1413 -75 1034 -75 
Q 653 -75 479 54 
Q 306 184 306 341 
Q 306 428 378 495 
Q 450 563 559 563 
Q 641 563 702 538 
Q 763 513 909 409 
Q 1144 247 1384 247 
Q 1750 247 2026 523 
Q 2303 800 2303 1197 
Q 2303 1581 2056 1914 
Q 1809 2247 1375 2428 
Q 1034 2569 447 2591 
L 1259 4238 
L 2778 4238 
z
" transform="scale(0.015625)"/>
       </defs>
       <use xlink:href="#TimesNewRomanPSMT-31"/>
       <use xlink:href="#TimesNewRomanPSMT-35" x="50"/>
       <use xlink:href="#TimesNewRomanPSMT-30" x="100"/>
       <use xlink:href="#TimesNewRomanPSMT-30" x="150"/>
       <use xlink:href="#TimesNewRomanPSMT-30" x="200"/>
      </g>
     </g>
    </g>
    <g id="ytick_7">
     <g id="line2d_10">
      <g>
       <use xlink:href="#m508e6ffbde" x="52.191094" y="16.909289" style="stroke: #000000; stroke-width: 0.8"/>
      </g>
     </g>
     <g id="text_11">
      <!-- 16000 -->
      <g transform="translate(21.191094 20.728352) scale(0.11 -0.11)">
       <defs>
        <path id="TimesNewRomanPSMT-36" d="M 2869 4325 
L 2869 4209 
Q 2456 4169 2195 4045 
Q 1934 3922 1679 3669 
Q 1425 3416 1258 3105 
Q 1091 2794 978 2366 
Q 1428 2675 1881 2675 
Q 2316 2675 2634 2325 
Q 2953 1975 2953 1425 
Q 2953 894 2631 456 
Q 2244 -75 1606 -75 
Q 1172 -75 869 213 
Q 275 772 275 1663 
Q 275 2231 503 2743 
Q 731 3256 1154 3653 
Q 1578 4050 1965 4187 
Q 2353 4325 2688 4325 
L 2869 4325 
z
M 925 2138 
Q 869 1716 869 1456 
Q 869 1156 980 804 
Q 1091 453 1309 247 
Q 1469 100 1697 100 
Q 1969 100 2183 356 
Q 2397 613 2397 1088 
Q 2397 1622 2184 2012 
Q 1972 2403 1581 2403 
Q 1463 2403 1327 2353 
Q 1191 2303 925 2138 
z
" transform="scale(0.015625)"/>
       </defs>
       <use xlink:href="#TimesNewRomanPSMT-31"/>
       <use xlink:href="#TimesNewRomanPSMT-36" x="50"/>
       <use xlink:href="#TimesNewRomanPSMT-30" x="100"/>
       <use xlink:href="#TimesNewRomanPSMT-30" x="150"/>
       <use xlink:href="#TimesNewRomanPSMT-30" x="200"/>
      </g>
     </g>
    </g>
    <g id="text_12">
     <!-- USTEC price [USD] -->
     <g transform="translate(14.838125 136.185313) rotate(-90) scale(0.11 -0.11)">
      <defs>
       <path id="TimesNewRomanPSMT-55" d="M 3053 4122 
L 3053 4238 
L 4553 4238 
L 4553 4122 
L 4394 4122 
Q 4144 4122 4009 3913 
Q 3944 3816 3944 3463 
L 3944 1744 
Q 3944 1106 3817 754 
Q 3691 403 3320 151 
Q 2950 -100 2313 -100 
Q 1619 -100 1259 140 
Q 900 381 750 788 
Q 650 1066 650 1831 
L 650 3488 
Q 650 3878 542 4000 
Q 434 4122 194 4122 
L 34 4122 
L 34 4238 
L 1866 4238 
L 1866 4122 
L 1703 4122 
Q 1441 4122 1328 3956 
Q 1250 3844 1250 3488 
L 1250 1641 
Q 1250 1394 1295 1075 
Q 1341 756 1459 578 
Q 1578 400 1801 284 
Q 2025 169 2350 169 
Q 2766 169 3094 350 
Q 3422 531 3542 814 
Q 3663 1097 3663 1772 
L 3663 3488 
Q 3663 3884 3575 3984 
Q 3453 4122 3213 4122 
L 3053 4122 
z
" transform="scale(0.015625)"/>
       <path id="TimesNewRomanPSMT-53" d="M 2934 4334 
L 2934 2869 
L 2819 2869 
Q 2763 3291 2617 3541 
Q 2472 3791 2203 3937 
Q 1934 4084 1647 4084 
Q 1322 4084 1109 3886 
Q 897 3688 897 3434 
Q 897 3241 1031 3081 
Q 1225 2847 1953 2456 
Q 2547 2138 2764 1967 
Q 2981 1797 3098 1565 
Q 3216 1334 3216 1081 
Q 3216 600 2842 251 
Q 2469 -97 1881 -97 
Q 1697 -97 1534 -69 
Q 1438 -53 1133 45 
Q 828 144 747 144 
Q 669 144 623 97 
Q 578 50 556 -97 
L 441 -97 
L 441 1356 
L 556 1356 
Q 638 900 775 673 
Q 913 447 1195 297 
Q 1478 147 1816 147 
Q 2206 147 2432 353 
Q 2659 559 2659 841 
Q 2659 997 2573 1156 
Q 2488 1316 2306 1453 
Q 2184 1547 1640 1851 
Q 1097 2156 867 2337 
Q 638 2519 519 2737 
Q 400 2956 400 3219 
Q 400 3675 750 4004 
Q 1100 4334 1641 4334 
Q 1978 4334 2356 4169 
Q 2531 4091 2603 4091 
Q 2684 4091 2736 4139 
Q 2788 4188 2819 4334 
L 2934 4334 
z
" transform="scale(0.015625)"/>
       <path id="TimesNewRomanPSMT-54" d="M 3703 4238 
L 3750 3244 
L 3631 3244 
Q 3597 3506 3538 3619 
Q 3441 3800 3280 3886 
Q 3119 3972 2856 3972 
L 2259 3972 
L 2259 734 
Q 2259 344 2344 247 
Q 2463 116 2709 116 
L 2856 116 
L 2856 0 
L 1059 0 
L 1059 116 
L 1209 116 
Q 1478 116 1591 278 
Q 1659 378 1659 734 
L 1659 3972 
L 1150 3972 
Q 853 3972 728 3928 
Q 566 3869 450 3700 
Q 334 3531 313 3244 
L 194 3244 
L 244 4238 
L 3703 4238 
z
" transform="scale(0.015625)"/>
       <path id="TimesNewRomanPSMT-45" d="M 1338 4006 
L 1338 2331 
L 2269 2331 
Q 2631 2331 2753 2441 
Q 2916 2584 2934 2947 
L 3050 2947 
L 3050 1472 
L 2934 1472 
Q 2891 1781 2847 1869 
Q 2791 1978 2662 2040 
Q 2534 2103 2269 2103 
L 1338 2103 
L 1338 706 
Q 1338 425 1363 364 
Q 1388 303 1450 267 
Q 1513 231 1688 231 
L 2406 231 
Q 2766 231 2928 281 
Q 3091 331 3241 478 
Q 3434 672 3638 1063 
L 3763 1063 
L 3397 0 
L 131 0 
L 131 116 
L 281 116 
Q 431 116 566 188 
Q 666 238 702 338 
Q 738 438 738 747 
L 738 3500 
Q 738 3903 656 3997 
Q 544 4122 281 4122 
L 131 4122 
L 131 4238 
L 3397 4238 
L 3444 3309 
L 3322 3309 
Q 3256 3644 3176 3769 
Q 3097 3894 2941 3959 
Q 2816 4006 2500 4006 
L 1338 4006 
z
" transform="scale(0.015625)"/>
       <path id="TimesNewRomanPSMT-43" d="M 3853 4334 
L 3950 2894 
L 3853 2894 
Q 3659 3541 3300 3825 
Q 2941 4109 2438 4109 
Q 2016 4109 1675 3895 
Q 1334 3681 1139 3212 
Q 944 2744 944 2047 
Q 944 1472 1128 1050 
Q 1313 628 1683 403 
Q 2053 178 2528 178 
Q 2941 178 3256 354 
Q 3572 531 3950 1056 
L 4047 994 
Q 3728 428 3303 165 
Q 2878 -97 2294 -97 
Q 1241 -97 663 684 
Q 231 1266 231 2053 
Q 231 2688 515 3219 
Q 800 3750 1298 4042 
Q 1797 4334 2388 4334 
Q 2847 4334 3294 4109 
Q 3425 4041 3481 4041 
Q 3566 4041 3628 4100 
Q 3709 4184 3744 4334 
L 3853 4334 
z
" transform="scale(0.015625)"/>
       <path id="TimesNewRomanPSMT-20" transform="scale(0.015625)"/>
       <path id="TimesNewRomanPSMT-70" d="M -6 2578 
L 875 2934 
L 994 2934 
L 994 2266 
Q 1216 2644 1439 2795 
Q 1663 2947 1909 2947 
Q 2341 2947 2628 2609 
Q 2981 2197 2981 1534 
Q 2981 794 2556 309 
Q 2206 -88 1675 -88 
Q 1444 -88 1275 -22 
Q 1150 25 994 166 
L 994 -706 
Q 994 -1000 1030 -1079 
Q 1066 -1159 1155 -1206 
Q 1244 -1253 1478 -1253 
L 1478 -1369 
L -22 -1369 
L -22 -1253 
L 56 -1253 
Q 228 -1256 350 -1188 
Q 409 -1153 442 -1076 
Q 475 -1000 475 -688 
L 475 2019 
Q 475 2297 450 2372 
Q 425 2447 370 2484 
Q 316 2522 222 2522 
Q 147 2522 31 2478 
L -6 2578 
z
M 994 2081 
L 994 1013 
Q 994 666 1022 556 
Q 1066 375 1236 237 
Q 1406 100 1666 100 
Q 1978 100 2172 344 
Q 2425 663 2425 1241 
Q 2425 1897 2138 2250 
Q 1938 2494 1663 2494 
Q 1513 2494 1366 2419 
Q 1253 2363 994 2081 
z
" transform="scale(0.015625)"/>
       <path id="TimesNewRomanPSMT-69" d="M 928 4444 
Q 1059 4444 1151 4351 
Q 1244 4259 1244 4128 
Q 1244 3997 1151 3903 
Q 1059 3809 928 3809 
Q 797 3809 703 3903 
Q 609 3997 609 4128 
Q 609 4259 701 4351 
Q 794 4444 928 4444 
z
M 1188 2947 
L 1188 647 
Q 1188 378 1227 289 
Q 1266 200 1342 156 
Q 1419 113 1622 113 
L 1622 0 
L 231 0 
L 231 113 
Q 441 113 512 153 
Q 584 194 626 287 
Q 669 381 669 647 
L 669 1750 
Q 669 2216 641 2353 
Q 619 2453 572 2492 
Q 525 2531 444 2531 
Q 356 2531 231 2484 
L 188 2597 
L 1050 2947 
L 1188 2947 
z
" transform="scale(0.015625)"/>
       <path id="TimesNewRomanPSMT-63" d="M 2631 1088 
Q 2516 522 2178 217 
Q 1841 -88 1431 -88 
Q 944 -88 581 321 
Q 219 731 219 1428 
Q 219 2103 620 2525 
Q 1022 2947 1584 2947 
Q 2006 2947 2278 2723 
Q 2550 2500 2550 2259 
Q 2550 2141 2473 2067 
Q 2397 1994 2259 1994 
Q 2075 1994 1981 2113 
Q 1928 2178 1911 2362 
Q 1894 2547 1784 2644 
Q 1675 2738 1481 2738 
Q 1169 2738 978 2506 
Q 725 2200 725 1697 
Q 725 1184 976 792 
Q 1228 400 1656 400 
Q 1963 400 2206 609 
Q 2378 753 2541 1131 
L 2631 1088 
z
" transform="scale(0.015625)"/>
       <path id="TimesNewRomanPSMT-5b" d="M 1900 -1269 
L 525 -1269 
L 525 4334 
L 1900 4334 
L 1900 4088 
L 994 4088 
L 994 -1025 
L 1900 -1025 
L 1900 -1269 
z
" transform="scale(0.015625)"/>
       <path id="TimesNewRomanPSMT-44" d="M 109 0 
L 109 116 
L 269 116 
Q 538 116 650 288 
Q 719 391 719 750 
L 719 3488 
Q 719 3884 631 3984 
Q 509 4122 269 4122 
L 109 4122 
L 109 4238 
L 1834 4238 
Q 2784 4238 3279 4022 
Q 3775 3806 4076 3303 
Q 4378 2800 4378 2141 
Q 4378 1256 3841 663 
Q 3238 0 2003 0 
L 109 0 
z
M 1319 306 
Q 1716 219 1984 219 
Q 2709 219 3187 728 
Q 3666 1238 3666 2109 
Q 3666 2988 3187 3494 
Q 2709 4000 1959 4000 
Q 1678 4000 1319 3909 
L 1319 306 
z
" transform="scale(0.015625)"/>
       <path id="TimesNewRomanPSMT-5d" d="M 234 4334 
L 1609 4334 
L 1609 -1272 
L 234 -1272 
L 234 -1025 
L 1141 -1025 
L 1141 4088 
L 234 4088 
L 234 4334 
z
" transform="scale(0.015625)"/>
      </defs>
      <use xlink:href="#TimesNewRomanPSMT-55"/>
      <use xlink:href="#TimesNewRomanPSMT-53" x="72.216797"/>
      <use xlink:href="#TimesNewRomanPSMT-54" x="127.832031"/>
      <use xlink:href="#TimesNewRomanPSMT-45" x="188.916016"/>
      <use xlink:href="#TimesNewRomanPSMT-43" x="250"/>
      <use xlink:href="#TimesNewRomanPSMT-20" x="316.699219"/>
      <use xlink:href="#TimesNewRomanPSMT-70" x="341.699219"/>
      <use xlink:href="#TimesNewRomanPSMT-72" x="391.699219"/>
      <use xlink:href="#TimesNewRomanPSMT-69" x="425"/>
      <use xlink:href="#TimesNewRomanPSMT-63" x="452.783203"/>
      <use xlink:href="#TimesNewRomanPSMT-65" x="497.167969"/>
      <use xlink:href="#TimesNewRomanPSMT-20" x="541.552734"/>
      <use xlink:href="#TimesNewRomanPSMT-5b" x="566.552734"/>
      <use xlink:href="#TimesNewRomanPSMT-55" x="599.853516"/>
      <use xlink:href="#TimesNewRomanPSMT-53" x="672.070312"/>
      <use xlink:href="#TimesNewRomanPSMT-44" x="727.685547"/>
      <use xlink:href="#TimesNewRomanPSMT-5d" x="799.902344"/>
     </g>
    </g>
   </g>
   <g id="line2d_11">
    <path d="M 64.872912 50.603383 
L 65.017105 57.843783 
L 65.161299 72.232937 
L 65.305492 58.064515 
L 65.449686 60.261295 
L 65.593879 47.846154 
L 65.738073 49.424207 
L 65.882266 62.468863 
L 66.02646 64.61548 
L 66.314847 48.194402 
L 66.45904 41.95388 
L 66.603234 53.214314 
L 66.747427 55.122791 
L 66.891621 60.217212 
L 67.035814 58.577449 
L 67.180008 55.038353 
L 67.324201 60.559773 
L 67.468395 58.076946 
L 67.612588 51.891882 
L 67.756782 50.63045 
L 68.045169 72.938922 
L 68.189362 54.883181 
L 68.333556 55.179427 
L 68.477749 47.152379 
L 68.621943 48.045384 
L 68.91033 63.173377 
L 69.198717 44.678745 
L 69.34291 40.162033 
L 69.487104 51.748528 
L 69.631297 50.7359 
L 69.775491 59.396019 
L 69.919684 58.708642 
L 70.063878 53.95715 
L 70.208071 61.408058 
L 70.352265 58.444048 
L 70.496458 45.686935 
L 70.640652 49.562535 
L 70.929039 69.948997 
L 71.073232 54.359631 
L 71.217426 56.364806 
L 71.361619 46.216737 
L 71.505813 47.468362 
L 71.7942 61.183428 
L 71.938393 47.580089 
L 72.082587 45.03484 
L 72.22678 40.085171 
L 72.370974 52.353598 
L 72.515167 51.635134 
L 72.659361 56.984562 
L 72.803554 56.953842 
L 72.947748 54.253102 
L 73.091941 57.897722 
L 73.236135 54.038475 
L 73.380328 46.172188 
L 73.524522 51.034746 
L 73.812909 74.333608 
L 73.957102 57.787074 
L 74.101296 59.638989 
L 74.245489 51.663648 
L 74.389683 52.930841 
L 74.67807 66.789189 
L 74.822263 52.243097 
L 74.966457 51.602599 
L 75.11065 44.501311 
L 75.254844 59.086999 
L 75.399037 57.789869 
L 75.543231 60.900249 
L 75.687424 60.12358 
L 75.831618 58.671351 
L 75.975811 63.932026 
L 76.264198 52.034035 
L 76.696779 85.71663 
L 76.840972 67.959513 
L 76.985166 74.82548 
L 77.129359 62.311705 
L 77.273553 64.728555 
L 77.417746 76.05043 
L 77.56194 77.45865 
L 77.850327 60.174772 
L 77.99452 53.956439 
L 78.282907 70.015758 
L 78.427101 70.681902 
L 78.571294 72.671435 
L 78.715488 68.027501 
L 79.003875 73.499174 
L 79.148068 63.13508 
L 79.292262 64.449642 
L 79.580649 88.385227 
L 79.724842 68.321246 
L 79.869036 70.235853 
L 80.013229 61.535771 
L 80.157423 65.060426 
L 80.44581 80.780078 
L 80.590003 64.697957 
L 80.734197 63.691214 
L 80.87839 53.006748 
L 81.022584 66.260785 
L 81.166777 67.170977 
L 81.455164 73.243603 
L 81.599358 70.656453 
L 81.743551 76.681612 
L 81.887745 77.039987 
L 82.031938 63.8393 
L 82.464519 101.540703 
L 82.608712 81.810628 
L 82.752906 86.664433 
L 82.897099 72.111231 
L 83.041293 77.015346 
L 83.32968 92.959237 
L 83.473873 75.594549 
L 83.618067 74.866915 
L 83.76226 66.147145 
L 83.906454 78.737195 
L 84.194841 81.733814 
L 84.339034 84.97708 
L 84.483228 83.78643 
L 84.771615 87.778024 
L 84.915808 72.615142 
L 85.348389 104.703894 
L 85.492582 82.267783 
L 85.636776 87.104892 
L 85.780969 73.760018 
L 85.925163 77.988083 
L 86.21355 94.239842 
L 86.357743 77.904209 
L 86.501937 76.767154 
L 86.64613 68.595182 
L 86.790324 83.757524 
L 86.934517 82.040211 
L 87.222904 88.631678 
L 87.367098 83.90132 
L 87.655485 89.173665 
L 87.943872 61.856412 
L 88.232259 84.873567 
L 88.376452 66.297414 
L 88.520646 70.587485 
L 88.664839 56.566022 
L 89.09742 75.144038 
L 89.241613 60.676035 
L 89.385807 60.769178 
L 89.53 51.375443 
L 89.674194 67.520206 
L 89.818387 61.827285 
L 90.106774 69.447145 
L 90.250968 62.656423 
L 90.395161 71.229013 
L 90.539355 68.406911 
L 90.827742 46.642142 
L 91.116129 70.793972 
L 91.260322 54.039455 
L 91.404516 53.761621 
L 91.548709 44.678378 
L 91.692903 48.348667 
L 91.98129 61.234032 
L 92.269677 44.742222 
L 92.41387 37.193635 
L 92.558064 50.480549 
L 92.702257 51.148581 
L 92.846451 58.3169 
L 93.134838 52.873568 
L 93.279031 58.81701 
L 93.423225 54.808206 
L 93.567418 44.676907 
L 93.711612 43.49523 
L 93.999999 69.147589 
L 94.144192 50.219976 
L 94.288386 50.037148 
L 94.432579 41.34013 
L 94.576773 46.47628 
L 94.86516 58.226454 
L 95.009353 44.977125 
L 95.153547 45.198666 
L 95.29774 37.294476 
L 95.441934 50.103542 
L 95.586127 48.604411 
L 95.730321 55.961147 
L 96.018708 44.723294 
L 96.162901 55.993903 
L 96.307095 52.448187 
L 96.451288 43.643586 
L 96.883869 80.879718 
L 97.028062 65.094285 
L 97.172256 68.844355 
L 97.460643 57.916183 
L 97.604836 71.704729 
L 97.74903 71.143373 
L 98.037417 56.17168 
L 98.18161 50.901443 
L 98.325804 60.784256 
L 98.469997 60.990425 
L 98.614191 67.825132 
L 98.902578 64.937666 
L 99.046771 67.600305 
L 99.335158 59.273798 
L 99.479352 57.044508 
L 99.767739 77.825483 
L 99.911932 64.500222 
L 100.056126 65.055056 
L 100.200319 58.303047 
L 100.344513 58.367136 
L 100.488706 69.982365 
L 100.6329 69.24387 
L 100.921287 57.77381 
L 101.06548 49.905856 
L 101.353867 64.567768 
L 101.498061 67.456485 
L 101.642254 64.962257 
L 101.786448 66.066384 
L 101.930641 69.92215 
L 102.074835 66.723285 
L 102.219028 57.816446 
L 102.507415 81.892615 
L 102.651609 94.363484 
L 102.795802 76.504669 
L 102.939996 81.013314 
L 103.084189 68.836975 
L 103.228382 69.500765 
L 103.516769 85.733179 
L 103.94935 61.784429 
L 104.237737 76.19224 
L 104.38193 77.998356 
L 104.526124 82.246747 
L 104.670317 78.600362 
L 104.958704 81.739919 
L 105.102898 70.719463 
L 105.391285 92.233049 
L 105.535478 100.998201 
L 105.679672 81.138452 
L 105.823865 86.998069 
L 105.968059 78.234682 
L 106.112252 76.799223 
L 106.400639 93.298708 
L 106.689026 76.099564 
L 106.83322 70.719831 
L 107.121607 82.489619 
L 107.2658 86.244617 
L 107.409994 86.43154 
L 107.554187 86.419845 
L 107.698381 88.730877 
L 107.842574 87.678923 
L 107.986768 74.196554 
L 108.275155 105.56412 
L 108.419348 116.329445 
L 108.563542 96.002047 
L 108.707735 105.487429 
L 108.851929 92.275783 
L 108.996122 93.310526 
L 109.140316 108.553751 
L 109.284509 110.495597 
L 109.71709 84.861112 
L 110.005477 100.428362 
L 110.14967 98.956838 
L 110.293864 103.753444 
L 110.438057 101.923423 
L 110.582251 104.782841 
L 110.726444 105.013724 
L 110.870638 92.936313 
L 111.303218 121.457798 
L 111.447412 107.430133 
L 111.591605 106.795739 
L 111.735799 100.944508 
L 111.879992 99.942031 
L 112.024186 113.118665 
L 112.168379 112.475616 
L 112.60096 91.732399 
L 113.03354 109.52563 
L 113.321927 105.48939 
L 113.466121 111.853016 
L 113.610314 109.117215 
L 113.754508 99.79669 
L 114.187088 131.249087 
L 114.331282 115.516882 
L 114.475475 115.415869 
L 114.619669 108.259907 
L 114.763862 111.057002 
L 114.908056 120.379807 
L 115.052249 122.307065 
L 115.340636 107.145042 
L 115.48483 100.973046 
L 115.91741 116.704099 
L 116.061604 116.632458 
L 116.205797 117.259571 
L 116.349991 121.740879 
L 116.494184 117.275041 
L 116.782571 95.408279 
L 117.070958 119.67951 
L 117.215152 102.062487 
L 117.359345 102.505987 
L 117.503539 94.942517 
L 117.647732 96.987852 
L 117.791926 106.455606 
L 117.936119 108.513861 
L 118.224506 94.453243 
L 118.3687 87.706408 
L 118.512893 96.369198 
L 118.657087 97.52165 
L 118.945474 105.717159 
L 119.089667 101.098821 
L 119.233861 105.738416 
L 119.378054 103.232395 
L 119.522248 93.691162 
L 119.666441 96.411369 
L 119.954828 116.454264 
L 120.099022 100.043435 
L 120.243215 100.641519 
L 120.387409 93.190365 
L 120.531602 95.920771 
L 120.675796 107.492653 
L 120.819989 106.876868 
L 121.108376 93.18958 
L 121.25257 86.063432 
L 121.68515 103.502408 
L 121.973537 97.309646 
L 122.117731 104.628723 
L 122.261924 101.351868 
L 122.406118 91.07768 
L 122.694505 125.431077 
L 122.838698 136.432115 
L 122.982892 117.85812 
L 123.127085 120.631603 
L 123.271279 115.12862 
L 123.415472 114.285704 
L 123.703859 128.402197 
L 124.13644 105.748321 
L 124.424827 119.065956 
L 124.56902 119.776551 
L 124.713214 122.649184 
L 124.857407 122.774395 
L 125.001601 125.129314 
L 125.145794 122.818601 
L 125.289988 111.518521 
L 125.722568 140.714536 
L 125.866762 124.711632 
L 126.010955 127.064515 
L 126.155149 118.56842 
L 126.299342 119.377845 
L 126.443536 134.072783 
L 126.587729 131.966865 
L 127.02031 109.688207 
L 127.597084 128.627735 
L 127.741277 127.736495 
L 127.885471 129.111689 
L 128.029664 129.23842 
L 128.173858 117.980806 
L 128.318051 118.029204 
L 128.606438 139.279838 
L 128.750632 120.402437 
L 128.894825 122.337761 
L 129.039019 116.440657 
L 129.183212 115.610858 
L 129.327406 131.083691 
L 129.471599 130.399477 
L 129.615793 117.50129 
L 129.759986 114.549318 
L 129.90418 105.850878 
L 130.192567 119.306008 
L 130.480954 125.093763 
L 130.625147 120.701454 
L 130.769341 127.596401 
L 130.913534 127.367602 
L 131.057728 115.296493 
L 131.201921 122.941017 
L 131.490308 144.738346 
L 131.634502 124.978629 
L 131.778695 124.987921 
L 131.922889 119.212719 
L 132.067082 123.473834 
L 132.355469 135.469307 
L 132.643856 117.709445 
L 132.78805 111.509818 
L 133.076437 124.55999 
L 133.364824 128.05922 
L 133.509017 127.085968 
L 133.653211 132.317394 
L 133.797404 131.13991 
L 133.941598 115.495061 
L 134.229985 134.629186 
L 134.374178 145.719198 
L 134.518372 122.090795 
L 134.662565 125.560236 
L 134.806759 116.601713 
L 135.239339 134.886817 
L 135.383533 120.007703 
L 135.527726 118.395669 
L 135.67192 109.967168 
L 135.960307 123.357327 
L 136.1045 123.410751 
L 136.248694 129.679664 
L 136.392887 124.4426 
L 136.537081 130.571567 
L 136.681274 130.273555 
L 136.825468 113.203373 
L 137.113855 125.637442 
L 137.258048 137.864141 
L 137.402242 118.896686 
L 137.546435 118.859395 
L 137.690629 105.617814 
L 137.834822 112.280897 
L 137.979016 125.103791 
L 138.123209 127.977282 
L 138.411596 109.239215 
L 138.55579 102.920261 
L 138.844177 112.966484 
L 139.132564 122.693119 
L 139.276757 118.828307 
L 139.565144 123.465008 
L 139.709338 108.268783 
L 139.853531 106.956991 
L 140.141918 129.518338 
L 140.286112 110.343073 
L 140.430305 112.241154 
L 140.574499 101.81047 
L 141.007079 121.416928 
L 141.295466 103.740033 
L 141.43966 97.285766 
L 141.728047 108.605018 
L 142.016434 113.485032 
L 142.160627 111.931129 
L 142.449014 116.187243 
L 142.737401 95.151383 
L 143.025788 116.292472 
L 143.169982 94.665444 
L 143.314175 98.430862 
L 143.458369 88.475133 
L 143.602562 92.549155 
L 143.746756 105.033387 
L 143.890949 103.918889 
L 144.32353 80.115037 
L 144.611917 94.468591 
L 144.900304 102.042015 
L 145.044497 96.29388 
L 145.188691 102.066483 
L 145.332884 102.289398 
L 145.477078 87.254449 
L 145.621271 87.5022 
L 145.909658 106.268953 
L 146.053852 90.126568 
L 146.198045 91.656051 
L 146.342239 82.080199 
L 146.486432 85.099668 
L 146.774819 97.513632 
L 146.919013 83.978575 
L 147.063206 81.241353 
L 147.2074 74.505329 
L 147.351593 84.219976 
L 147.495786 85.709397 
L 147.63998 93.847805 
L 147.784173 90.400479 
L 147.928367 90.137601 
L 148.07256 91.338008 
L 148.216754 91.385867 
L 148.505141 73.736677 
L 148.793528 95.519957 
L 148.937721 78.948684 
L 149.081915 80.239023 
L 149.226108 72.888072 
L 149.370302 75.478777 
L 149.514495 83.927701 
L 149.658689 85.082849 
L 149.802882 79.627994 
L 150.091269 65.88184 
L 150.235463 77.394879 
L 150.379656 76.975383 
L 150.668043 82.256358 
L 150.812237 77.703949 
L 150.95643 80.887318 
L 151.100624 80.427122 
L 151.244817 71.792772 
L 151.677398 100.162714 
L 151.821591 87.413618 
L 151.965785 88.596005 
L 152.109978 79.59416 
L 152.254172 80.322064 
L 152.398365 93.606429 
L 152.542559 91.666496 
L 152.975139 70.2055 
L 153.263526 82.29615 
L 153.40772 89.753115 
L 153.551913 88.878865 
L 153.696107 86.39214 
L 153.8403 91.609983 
L 154.128687 79.200162 
L 154.417074 100.846903 
L 154.561268 111.951601 
L 154.705461 97.121522 
L 154.849655 98.131796 
L 155.138042 87.533607 
L 155.282235 103.547741 
L 155.426429 106.576845 
L 155.714816 85.456277 
L 155.859009 81.793147 
L 156.29159 99.798627 
L 156.435783 100.606875 
L 156.579977 98.437138 
L 156.72417 103.28067 
L 156.868364 100.425371 
L 157.012557 86.787315 
L 157.445138 117.867534 
L 157.733525 100.466561 
L 158.021912 96.451357 
L 158.166105 110.886457 
L 158.310299 109.807436 
L 158.742879 89.913411 
L 159.17546 107.06379 
L 159.319653 105.973736 
L 159.463847 102.967335 
L 159.60804 107.107088 
L 159.752234 106.037654 
L 159.896427 95.156139 
L 160.040621 99.329286 
L 160.329008 116.860938 
L 160.617395 102.599399 
L 160.761588 97.18338 
L 160.905782 99.759252 
L 161.049975 111.949811 
L 161.194169 109.918059 
L 161.626749 90.166016 
L 162.05933 106.42947 
L 162.203523 105.830112 
L 162.347717 102.130033 
L 162.49191 109.916049 
L 162.780297 97.308052 
L 163.068684 117.065121 
L 163.212878 127.759002 
L 163.357071 113.333684 
L 163.501265 113.312746 
L 163.789652 106.181793 
L 163.933845 121.423449 
L 164.078039 119.557952 
L 164.510619 97.351644 
L 164.654813 100.841264 
L 164.9432 116.989018 
L 165.087393 116.116044 
L 165.231587 117.20117 
L 165.37578 119.489008 
L 165.519974 115.847379 
L 165.664167 103.311048 
L 165.952554 133.65434 
L 166.096748 142.69919 
L 166.240941 124.860944 
L 166.529328 120.134533 
L 166.673522 120.401799 
L 166.817715 134.238154 
L 166.961909 134.971109 
L 167.106102 124.602038 
L 167.250296 123.193034 
L 167.394489 113.69733 
L 167.82707 127.542609 
L 167.971263 129.180534 
L 168.115457 125.918267 
L 168.25965 134.070527 
L 168.403844 130.579412 
L 168.548037 118.55648 
L 168.980618 147.190109 
L 169.124811 130.350982 
L 169.269005 133.000872 
L 169.557392 122.90022 
L 169.701585 136.225554 
L 169.845779 136.897386 
L 170.278359 116.233679 
L 170.855133 135.576523 
L 170.999327 134.256616 
L 171.14352 135.47296 
L 171.287714 132.681946 
L 171.431907 121.992847 
L 171.864488 156.924811 
L 172.008681 138.286065 
L 172.152875 137.072197 
L 172.297068 134.342795 
L 172.441262 136.19981 
L 172.585455 149.309732 
L 172.729649 150.776279 
L 172.873842 136.486029 
L 173.018036 140.052658 
L 173.162229 127.329355 
L 173.450616 137.972361 
L 173.739003 142.292172 
L 173.883197 140.362365 
L 174.02739 150.171478 
L 174.171584 144.927573 
L 174.315777 131.178354 
L 174.748358 162.76778 
L 174.892551 145.293817 
L 175.036745 145.159706 
L 175.180938 135.770629 
L 175.325132 139.75016 
L 175.613519 153.599337 
L 175.901906 137.485539 
L 176.046099 130.143979 
L 176.334486 140.743124 
L 176.47868 143.199815 
L 176.622873 150.029398 
L 176.767067 146.602274 
L 177.055454 150.166893 
L 177.199647 137.021322 
L 177.343841 136.777029 
L 177.632228 156.81252 
L 177.776421 137.154993 
L 177.920615 135.791616 
L 178.064808 129.112767 
L 178.209002 133.038972 
L 178.497389 146.589746 
L 178.641582 133.072709 
L 178.785776 131.708229 
L 178.929969 125.48124 
L 179.074163 128.821032 
L 179.36255 137.016174 
L 179.506743 140.670846 
L 179.650937 138.549874 
L 179.939324 142.426259 
L 180.083517 128.014868 
L 180.516098 157.643472 
L 180.660291 139.755799 
L 180.804485 139.414611 
L 180.948678 131.989446 
L 181.381259 147.427636 
L 181.669646 132.70335 
L 181.813839 126.68128 
L 182.102226 136.760308 
L 182.24642 141.140579 
L 182.390613 140.901704 
L 182.534807 139.419686 
L 182.679 143.324438 
L 182.823194 140.554436 
L 182.967387 130.133608 
L 183.255774 150.038666 
L 183.399968 160.940358 
L 183.544161 140.548307 
L 183.688355 142.143203 
L 183.832548 136.264537 
L 183.976742 138.419563 
L 184.265129 148.723564 
L 184.697709 127.041714 
L 184.986096 140.262676 
L 185.274483 144.216488 
L 185.418677 143.596437 
L 185.56287 144.305389 
L 185.707064 142.998059 
L 185.995451 121.760125 
L 186.283838 144.920634 
L 186.428031 126.949381 
L 186.572225 125.616234 
L 186.716418 120.228362 
L 187.004805 135.696659 
L 187.148999 132.186666 
L 187.293192 124.517722 
L 187.437386 122.84405 
L 187.581579 112.495647 
L 187.725773 121.620865 
L 187.869966 121.552829 
L 188.01416 128.991748 
L 188.302547 126.483423 
L 188.44674 135.413407 
L 188.735127 118.788343 
L 188.879321 122.337565 
L 189.167708 145.266774 
L 189.311901 129.230207 
L 189.456095 129.276104 
L 189.600288 123.471015 
L 189.744482 124.2126 
L 189.888675 135.841215 
L 190.032869 134.457538 
L 190.321256 118.958937 
L 190.465449 113.240959 
L 190.89803 130.44736 
L 191.042223 129.071333 
L 191.186417 129.781584 
L 191.33061 133.344879 
L 191.474804 129.709943 
L 191.618997 118.684315 
L 191.76319 122.094889 
L 192.051577 142.379553 
L 192.195771 124.445959 
L 192.339964 122.72357 
L 192.484158 119.245033 
L 192.628351 122.0575 
L 192.772545 133.509368 
L 192.916738 132.17909 
L 193.060932 121.546994 
L 193.205125 120.393365 
L 193.349319 110.603965 
L 193.637706 121.030481 
L 193.781899 126.704523 
L 193.926093 126.248323 
L 194.070286 124.513407 
L 194.21448 132.606726 
L 194.358673 130.540871 
L 194.502867 116.837279 
L 194.791254 134.805394 
L 194.935447 145.517173 
L 195.079641 128.977602 
L 195.223834 128.491515 
L 195.368028 121.867684 
L 195.800608 136.104118 
L 196.088995 119.89068 
L 196.233189 114.557261 
L 196.377382 122.733377 
L 196.521576 124.093567 
L 196.809963 129.911356 
L 196.954156 128.493673 
L 197.09835 132.795855 
L 197.242543 128.875388 
L 197.386737 119.441419 
L 197.53093 122.258348 
L 197.819317 142.884714 
L 197.963511 126.355343 
L 198.107704 123.779765 
L 198.251898 117.828085 
L 198.396091 120.948518 
L 198.540285 130.444712 
L 198.684478 130.553178 
L 198.972865 114.0534 
L 199.117059 110.683132 
L 199.549639 126.075033 
L 199.693833 128.018644 
L 199.838026 124.117447 
L 199.98222 130.549133 
L 200.270607 115.894919 
L 200.703187 149.817786 
L 200.847381 134.441945 
L 201.135768 125.805854 
L 201.279961 129.473299 
L 201.424155 138.910431 
L 201.568348 140.794022 
L 201.856735 124.374906 
L 202.000929 120.329399 
L 202.289316 131.43189 
L 202.577703 135.349122 
L 202.721896 134.734121 
L 202.86609 137.548917 
L 203.010283 134.130031 
L 203.154477 124.404082 
L 203.587057 159.540205 
L 203.731251 147.657194 
L 203.875444 147.714419 
L 204.019638 146.399195 
L 204.163831 142.528988 
L 204.308025 153.726363 
L 204.452218 152.051514 
L 204.740605 137.632841 
L 204.884799 133.07315 
L 205.317379 145.642237 
L 205.461573 144.799566 
L 205.605766 150.193029 
L 205.894153 145.567679 
L 206.038347 138.90565 
L 206.18254 141.325368 
L 206.470927 165.96 
L 206.615121 150.169565 
L 206.759314 149.000393 
L 206.903508 151.361098 
L 207.047701 145.178266 
L 207.191895 158.789671 
L 207.624475 143.719981 
L 207.768669 135.148028 
L 208.201249 149.366735 
L 208.345443 148.875525 
L 208.489636 152.049479 
L 208.778023 153.112123 
L 209.06641 133.159501 
L 209.354797 155.083684 
L 209.498991 139.353293 
L 209.643184 137.441775 
L 209.787378 133.7263 
L 209.931571 132.877033 
L 210.075765 144.187581 
L 210.219958 142.787821 
L 210.652539 122.876904 
L 211.229313 141.390585 
L 211.373506 143.170639 
L 211.5177 141.26025 
L 211.661893 144.204548 
L 211.806087 129.428187 
L 211.95028 128.158983 
L 212.238667 149.837229 
L 212.382861 134.518268 
L 212.671248 126.4719 
L 212.815441 129.89081 
L 212.959635 140.044494 
L 213.103828 140.759403 
L 213.392215 126.851114 
L 213.536409 119.176555 
L 213.824796 130.05498 
L 214.113183 134.327987 
L 214.257376 133.57836 
L 214.40157 138.006882 
L 214.545763 136.985232 
L 214.83415 119.317507 
L 215.122537 142.793019 
L 215.266731 124.447209 
L 215.555118 118.396821 
L 215.843505 131.632445 
L 215.987698 129.792372 
L 216.420279 109.984527 
L 216.708666 121.116905 
L 216.852859 125.669585 
L 216.997053 125.685791 
L 217.141246 125.264382 
L 217.28544 132.612513 
L 217.429633 127.547219 
L 217.71802 110.077547 
L 218.006407 131.042599 
L 218.294794 111.828621 
L 218.438988 105.509225 
L 218.727375 121.131591 
L 218.871568 119.876141 
L 219.304149 98.679912 
L 219.592536 111.351066 
L 219.736729 116.497366 
L 219.880923 116.67963 
L 220.025116 114.341433 
L 220.16931 121.713493 
L 220.60189 100.694795 
L 220.890277 120.008414 
L 221.034471 106.179978 
L 221.178664 103.943088 
L 221.322858 97.377756 
L 221.467051 100.872328 
L 221.611245 110.152816 
L 221.755438 109.481866 
L 222.188019 88.574062 
L 222.620599 106.869782 
L 222.764793 106.93012 
L 222.908986 103.846169 
L 223.05318 108.566525 
L 223.197373 106.49986 
L 223.341567 95.220498 
L 223.48576 97.749419 
L 223.774147 118.765002 
L 224.062534 99.655419 
L 224.206728 95.496224 
L 224.350921 100.550828 
L 224.495115 110.626987 
L 224.639308 109.690413 
L 224.927695 96.349462 
L 225.071889 89.958622 
L 225.504469 105.89474 
L 225.792856 102.780707 
L 225.93705 111.872115 
L 226.225437 94.574924 
L 226.658017 129.444123 
L 226.802211 111.055849 
L 226.946404 114.554466 
L 227.090598 105.930879 
L 227.234791 107.387766 
L 227.523178 119.290072 
L 227.811565 100.506475 
L 227.955759 96.015041 
L 228.244146 110.525042 
L 228.532533 116.112268 
L 228.676726 113.635766 
L 228.82092 113.127761 
L 228.965113 114.562459 
L 229.109307 102.06082 
L 229.541887 133.608223 
L 229.686081 112.773236 
L 229.830274 114.114645 
L 229.974468 107.99676 
L 230.118661 109.347975 
L 230.262855 121.4793 
L 230.407048 123.217527 
L 230.551242 112.594993 
L 230.695435 111.362442 
L 230.839629 100.924133 
L 231.128016 112.646995 
L 231.272209 113.845784 
L 231.416403 119.511319 
L 231.560596 115.951113 
L 231.70479 120.711212 
L 231.848983 118.932409 
L 231.993177 109.755115 
L 232.13737 111.550125 
L 232.425757 133.087051 
L 232.569951 115.661241 
L 232.714144 118.63116 
L 232.858338 107.869317 
L 233.002531 111.373304 
L 233.146725 123.001208 
L 233.290918 124.821863 
L 233.435112 109.729764 
L 233.579305 107.42241 
L 233.723499 102.66491 
L 234.011886 113.238654 
L 234.156079 117.429453 
L 234.300273 117.35921 
L 234.444466 117.023073 
L 234.58866 121.485724 
L 234.732853 118.325916 
L 234.877047 106.42741 
L 235.02124 111.520017 
L 235.309627 135.980206 
L 235.453821 112.279917 
L 235.598014 112.661117 
L 235.742208 107.01397 
L 235.886401 109.431286 
L 236.174788 123.350928 
L 236.463175 107.468846 
L 236.607368 98.714114 
L 236.895755 110.428468 
L 237.184142 118.809257 
L 237.328336 113.793782 
L 237.616723 121.316577 
L 237.760916 103.621637 
L 237.90511 102.723237 
L 238.193497 124.229713 
L 238.33769 104.775878 
L 238.481884 107.060872 
L 238.626077 95.270122 
L 239.058658 113.380881 
L 239.202851 101.104853 
L 239.347045 99.625851 
L 239.491238 90.605985 
L 239.635432 98.677117 
L 239.779625 98.031641 
L 240.068012 109.146563 
L 240.212206 104.836167 
L 240.356399 108.555369 
L 240.500593 107.289843 
L 240.644786 94.589758 
L 240.78898 95.251538 
L 241.077367 114.184079 
L 241.22156 97.085481 
L 241.365754 98.09725 
L 241.509947 90.495043 
L 241.654141 90.685839 
L 241.798334 101.518907 
L 241.942528 103.725886 
L 242.375108 82.810923 
L 242.807689 101.148053 
L 243.096076 98.768764 
L 243.240269 99.534106 
L 243.384463 98.328525 
L 243.67285 81.378725 
L 243.961237 103.048439 
L 244.10543 85.960262 
L 244.249624 86.90039 
L 244.393817 80.741708 
L 244.826398 92.460769 
L 245.258978 73.330346 
L 245.403172 83.829164 
L 245.547365 84.737739 
L 245.691559 90.596767 
L 245.979946 85.293701 
L 246.124139 87.48901 
L 246.268333 86.724403 
L 246.412526 79.025498 
L 246.55672 80.948195 
L 246.845107 99.407546 
L 246.9893 85.877637 
L 247.133494 87.274333 
L 247.277687 80.676614 
L 247.421881 81.809843 
L 247.566074 93.492495 
L 247.854461 86.575826 
L 248.142848 69.42096 
L 248.431235 83.242408 
L 248.575429 89.007264 
L 248.863816 87.354236 
L 249.008009 91.076062 
L 249.152203 87.213897 
L 249.296396 78.015077 
L 249.728977 103.613497 
L 249.87317 85.598014 
L 250.017364 89.8098 
L 250.161557 79.539952 
L 250.305751 78.287493 
L 250.449944 95.049635 
L 250.594138 97.738557 
L 250.738331 83.64489 
L 250.882525 80.630447 
L 251.026718 71.977757 
L 251.603492 91.819191 
L 251.747686 91.301918 
L 251.891879 92.759933 
L 252.036073 95.410191 
L 252.180266 78.884399 
L 252.612847 110.814669 
L 252.75704 87.993681 
L 252.901234 93.07116 
L 253.045427 82.621818 
L 253.189621 81.255475 
L 253.478008 103.207779 
L 253.622201 87.386305 
L 253.766395 84.10109 
L 253.910588 76.685045 
L 254.487362 96.881715 
L 254.631556 92.7502 
L 254.775749 93.241729 
L 254.919943 100.551784 
L 255.064136 81.051856 
L 255.20833 86.130414 
L 255.496717 108.040278 
L 255.64091 86.242778 
L 255.785104 90.470182 
L 255.929297 81.740434 
L 256.073491 84.686571 
L 256.361878 98.754225 
L 256.506071 86.892692 
L 256.650265 84.530026 
L 256.794458 76.350355 
L 256.938652 87.649208 
L 257.227039 90.382875 
L 257.371232 93.863545 
L 257.515426 89.71955 
L 257.803813 93.831599 
L 257.948006 81.010176 
L 258.0922 85.042836 
L 258.380587 106.473013 
L 258.52478 86.910639 
L 258.668974 91.93923 
L 258.813167 80.773311 
L 258.957361 84.706798 
L 259.101554 96.742553 
L 259.245748 96.744073 
L 259.534135 83.075468 
L 259.678328 72.412332 
L 259.822522 85.914512 
L 259.966715 86.315498 
L 260.255102 92.123823 
L 260.399296 88.406533 
L 260.543489 94.651518 
L 260.687683 91.906425 
L 260.831876 79.858092 
L 260.97607 79.449187 
L 261.264457 100.76418 
L 261.40865 79.839925 
L 261.552844 84.527991 
L 261.697037 74.854362 
L 261.841231 74.664081 
L 262.129618 89.775181 
L 262.562198 65.307392 
L 262.850585 79.477334 
L 263.138972 87.10472 
L 263.283166 84.297672 
L 263.571553 87.44657 
L 263.715746 73.732852 
L 263.85994 70.702301 
L 264.148327 91.436765 
L 264.29252 73.313551 
L 264.436714 75.170027 
L 264.580907 65.880884 
L 264.725101 71.19182 
L 265.013488 84.887027 
L 265.157681 70.813513 
L 265.301875 73.137637 
L 265.446068 62.476905 
L 265.590262 75.992152 
L 265.734455 71.744496 
L 265.878649 76.832935 
L 266.022842 77.469903 
L 266.167036 70.341745 
L 266.311229 81.328072 
L 266.455423 78.809596 
L 266.74381 63.880343 
L 267.032197 83.493003 
L 267.17639 67.357507 
L 267.320584 70.092547 
L 267.464777 57.425806 
L 267.608971 59.457068 
L 267.753164 71.839233 
L 267.897358 73.182848 
L 268.185745 54.499308 
L 268.329938 51.182072 
L 268.474132 63.670693 
L 268.618325 62.578972 
L 268.762519 70.851246 
L 268.906712 70.507827 
L 269.050906 65.963557 
L 269.195099 71.98602 
L 269.339293 68.620092 
L 269.62768 53.57568 
L 269.916067 74.517588 
L 270.06026 57.944403 
L 270.204454 56.150374 
L 270.348647 50.433108 
L 270.492841 53.157213 
L 270.637034 63.959608 
L 270.781228 66.142315 
L 270.925421 53.617041 
L 271.069615 51.294437 
L 271.213808 44.288057 
L 271.358002 56.64997 
L 271.502195 57.43554 
L 271.646389 61.660418 
L 271.790582 60.746842 
L 271.934776 54.181854 
L 272.078969 64.645833 
L 272.223163 61.762927 
L 272.51155 47.649253 
L 272.799937 72.415838 
L 272.94413 51.896565 
L 273.088324 58.620502 
L 273.232517 44.187191 
L 273.376711 47.874031 
L 273.665098 62.79556 
L 273.809291 46.077109 
L 273.953485 48.468289 
L 274.097678 36.53411 
L 274.241872 54.212059 
L 274.386065 52.096604 
L 274.674452 57.506102 
L 274.818646 54.007975 
L 274.962839 59.560385 
L 275.107033 58.603266 
L 275.39542 42.587293 
L 275.683807 65.348165 
L 275.828 45.724741 
L 275.972194 51.680933 
L 276.116387 37.4508 
L 276.260581 41.222813 
L 276.404774 54.129116 
L 276.548968 56.190265 
L 276.693161 40.233208 
L 276.837355 40.002301 
L 276.981548 31.009307 
L 277.125742 46.880184 
L 277.269935 47.358523 
L 277.558322 50.192295 
L 277.702516 45.603453 
L 277.990903 53.770693 
L 278.135096 40.987322 
L 278.27929 43.643219 
L 278.567677 66.527585 
L 278.71187 44.199328 
L 278.856064 51.552656 
L 279.000257 38.138765 
L 279.144451 41.207367 
L 279.432838 55.756965 
L 279.577031 43.338415 
L 279.721225 41.367443 
L 279.865418 32.375086 
L 280.009612 47.921252 
L 280.153805 46.276756 
L 280.297998 49.681029 
L 280.442192 48.966021 
L 280.586385 45.187903 
L 280.874772 54.714794 
L 281.018966 39.989527 
L 281.163159 39.182554 
L 281.451546 61.187694 
L 281.59574 44.543335 
L 281.739933 48.979384 
L 281.884127 36.752783 
L 282.02832 41.093507 
L 282.316707 52.727296 
L 282.460901 38.567186 
L 282.605094 38.382887 
L 282.749288 28.946001 
L 282.893481 46.965603 
L 283.037675 44.056684 
L 283.181868 46.55356 
L 283.326062 46.452155 
L 283.470255 43.407261 
L 283.614449 48.491875 
L 283.758642 47.648787 
L 284.047029 37.139941 
L 284.335416 59.423699 
L 284.47961 43.168459 
L 284.623803 46.560989 
L 284.767997 35.741161 
L 284.91219 33.965643 
L 285.056384 47.49842 
L 285.200577 50.12063 
L 285.488964 31.948308 
L 285.633158 26.037204 
L 285.777351 43.504302 
L 285.921545 43.450142 
L 286.209932 46.596417 
L 286.354125 42.154704 
L 286.498319 48.713612 
L 286.642512 46.936672 
L 286.930899 25.324501 
L 287.219286 51.016652 
L 287.36348 33.051871 
L 287.507673 36.111696 
L 287.651867 26.003296 
L 287.79606 27.8888 
L 288.084447 41.658884 
L 288.228641 27.842683 
L 288.372834 27.986503 
L 288.517028 18.981397 
L 288.661221 36.010536 
L 288.805415 30.852467 
L 288.949608 38.419467 
L 289.237995 30.811547 
L 289.382189 42.712995 
L 289.814769 28.754935 
L 290.103156 54.244741 
L 290.24735 36.205746 
L 290.391543 39.675236 
L 290.535737 29.206255 
L 290.67993 28.695774 
L 290.968317 45.761223 
L 291.112511 30.053389 
L 291.256704 30.169627 
L 291.400898 20.198967 
L 291.545091 38.308917 
L 291.689285 34.920605 
L 291.833478 39.755384 
L 291.977672 40.542277 
L 292.121865 34.729122 
L 292.266059 44.502341 
L 292.698639 29.590962 
L 292.842833 36.461048 
L 292.987026 52.024057 
L 293.13122 34.394236 
L 293.275413 38.727727 
L 293.419607 25.898802 
L 293.5638 28.643502 
L 293.707994 42.937037 
L 293.852187 44.334567 
L 293.996381 27.898853 
L 294.140574 30.825155 
L 294.284768 20.298509 
L 294.428961 36.934679 
L 294.573155 34.500716 
L 294.717348 40.657952 
L 295.005735 31.615113 
L 295.149929 43.621324 
L 295.294122 39.912223 
L 295.438316 30.666624 
L 295.582509 33.88905 
L 295.870896 60.40058 
L 296.01509 39.139893 
L 296.159283 43.580478 
L 296.303477 33.90278 
L 296.44767 36.328677 
L 296.736057 50.81394 
L 296.880251 34.359028 
L 297.024444 35.641252 
L 297.168638 26.910473 
L 297.312831 42.947751 
L 297.457025 40.159753 
L 297.601218 44.052001 
L 297.889605 38.100664 
L 298.033799 45.781401 
L 298.177992 44.397822 
L 298.322186 34.587729 
L 298.610573 49.116756 
L 298.754766 63.866025 
L 298.89896 44.404785 
L 299.043153 50.001082 
L 299.187347 36.749939 
L 299.619927 51.318856 
L 299.764121 40.199742 
L 299.908314 38.567848 
L 300.052508 30.654684 
L 300.196701 47.367325 
L 300.340895 45.327899 
L 300.629282 47.408269 
L 300.773475 41.942774 
L 300.917669 48.984679 
L 301.350249 40.251915 
L 301.638636 61.709969 
L 301.78283 46.114621 
L 301.927023 51.603849 
L 302.071217 39.481522 
L 302.21541 40.724591 
L 302.359604 52.881635 
L 302.503797 53.317068 
L 302.647991 41.025299 
L 302.792184 40.446119 
L 302.936378 31.797426 
L 303.080571 46.200947 
L 303.224765 45.120185 
L 303.368958 50.071056 
L 303.657345 47.74318 
L 303.801539 53.192445 
L 304.089926 40.757199 
L 304.234119 34.40598 
L 304.522506 55.617925 
L 304.6667 41.0837 
L 304.810893 45.122809 
L 305.09928 30.878628 
L 305.387667 47.879351 
L 305.676054 28.215939 
L 305.820248 24.714968 
L 305.964441 38.777155 
L 306.108635 40.784438 
L 306.252828 44.900238 
L 306.397022 43.93743 
L 306.541215 41.589524 
L 306.829602 45.525756 
L 307.117989 26.205027 
L 307.406376 48.232454 
L 307.55057 31.997294 
L 307.694763 35.649686 
L 307.98315 26.247811 
L 308.127344 39.783359 
L 308.271537 39.928111 
L 308.704118 17.601398 
L 308.848311 33.49613 
L 308.992505 33.617247 
L 309.136698 35.811992 
L 309.280892 34.659271 
L 309.425085 32.563725 
L 309.569279 39.035546 
L 309.713472 38.430329 
L 310.001859 23.196885 
L 310.290246 46.46179 
L 310.43444 30.708745 
L 310.578633 35.630537 
L 310.722827 26.598535 
L 310.86702 25.408695 
L 311.011214 39.834404 
L 311.155407 37.028827 
L 311.587988 14.76 
L 311.732181 33.539404 
L 311.876375 34.147711 
L 312.020568 36.031278 
L 312.308955 30.710143 
L 312.453149 39.385781 
L 312.885729 25.804507 
L 313.174116 48.892174 
L 313.31831 32.890692 
L 313.462503 36.145089 
L 313.75089 26.760572 
L 313.895084 42.513471 
L 314.039277 43.108244 
L 314.183471 30.904396 
L 314.327664 29.191349 
L 314.471858 17.46584 
L 314.616051 33.611093 
L 314.904438 39.034811 
L 315.192825 34.523247 
L 315.337019 43.30132 
L 315.481212 39.489834 
L 315.625406 30.500688 
L 316.057986 60.853837 
L 316.20218 43.136439 
L 316.346373 47.877831 
L 316.490567 36.15215 
L 316.63476 36.483015 
L 316.778954 54.909831 
L 316.923147 56.196345 
L 317.067341 39.542473 
L 317.211534 40.612349 
L 317.355728 31.383838 
L 317.644115 46.06865 
L 317.788308 48.296862 
L 317.932502 47.736952 
L 318.076695 43.230759 
L 318.220889 55.776015 
L 318.365082 53.261903 
L 318.509276 41.236911 
L 318.509276 41.236911 
" clip-path="url(#p860b1d85a7)" style="fill: none; stroke: #2e8b57; stroke-width: 1.5; stroke-linecap: square"/>
   </g>
   <g id="line2d_12">
    <path d="M 64.872912 62.581325 
L 65.882266 58.719087 
L 67.468395 46.036091 
L 67.612588 45.557286 
L 69.054523 50.470571 
L 69.198717 50.587814 
L 69.487104 50.420407 
L 69.919684 50.041193 
L 70.496458 48.252509 
L 70.640652 48.560377 
L 71.073232 50.630475 
L 71.7942 54.710454 
L 72.22678 56.349213 
L 72.515167 56.802813 
L 72.803554 57.093936 
L 73.091941 57.381626 
L 73.380328 56.690841 
L 73.668715 58.577179 
L 74.101296 61.331343 
L 74.966457 66.400854 
L 75.254844 67.454009 
L 75.399037 67.65346 
L 75.687424 68.81155 
L 76.408392 73.473431 
L 76.552585 73.569712 
L 76.696779 73.474559 
L 77.129359 72.658465 
L 77.417746 71.093431 
L 78.138714 66.231216 
L 78.282907 66.101175 
L 79.003875 64.499953 
L 79.148068 64.423703 
L 79.436455 66.831678 
L 79.869036 68.566129 
L 80.44581 73.147861 
L 81.166777 78.748008 
L 81.599358 79.989066 
L 81.887745 80.333097 
L 82.031938 80.453797 
L 82.176132 79.099934 
L 82.608712 78.788952 
L 82.752906 78.980999 
L 83.185486 81.106481 
L 83.618067 83.112269 
L 83.906454 83.476429 
L 84.050647 83.631503 
L 84.483228 83.145833 
L 84.627421 82.969919 
L 84.915808 81.520045 
L 85.060002 68.466268 
L 85.636776 64.406246 
L 86.357743 61.605033 
L 87.367098 55.948815 
L 87.655485 55.414968 
L 87.799678 55.3193 
L 87.943872 50.934322 
L 88.376452 50.764292 
L 88.809033 49.351022 
L 90.683548 41.585969 
L 90.827742 41.056314 
L 91.260322 42.337311 
L 91.548709 42.507439 
L 91.837096 42.354474 
L 92.125483 42.372985 
L 92.990644 43.658518 
L 93.423225 44.99338 
L 93.567418 45.439552 
L 93.711612 53.119014 
L 94.720966 58.072312 
L 96.307095 64.429023 
L 96.451288 64.543447 
L 96.739675 66.122799 
L 97.316449 66.848129 
L 97.74903 66.874485 
L 97.893223 67.081782 
L 98.18161 66.853229 
L 99.046771 67.634262 
L 99.335158 67.200055 
L 99.623545 71.488165 
L 100.344513 76.183684 
L 100.777093 78.3189 
L 101.353867 82.541474 
L 102.074835 85.815436 
L 102.219028 85.994758 
L 102.363222 88.436763 
L 102.651609 88.649601 
L 103.228382 89.539542 
L 103.516769 89.666126 
L 103.805156 90.241751 
L 103.94935 90.22557 
L 104.237737 90.891175 
L 104.526124 91.419554 
L 104.670317 91.875263 
L 104.814511 91.718179 
L 105.102898 90.307263 
L 105.391285 92.291377 
L 105.679672 93.868326 
L 106.256446 98.613763 
L 106.83322 103.527882 
L 107.842574 107.930047 
L 107.986768 108.695537 
L 108.130961 112.976536 
L 108.275155 113.026013 
L 108.851929 113.688185 
L 109.140316 113.052247 
L 109.428703 111.927745 
L 109.861283 109.678424 
L 110.293864 107.91568 
L 110.438057 107.731185 
L 110.870638 109.351359 
L 111.014831 116.230296 
L 111.591605 119.083119 
L 111.735799 119.468707 
L 112.168379 119.737568 
L 112.312573 119.825562 
L 113.321927 121.321922 
L 113.466121 121.112271 
L 113.754508 120.57943 
L 113.898701 113.530463 
L 115.340636 102.5485 
L 116.205797 99.685257 
L 116.349991 99.586868 
L 116.638378 99.878039 
L 116.782571 100.542222 
L 117.070958 100.650296 
L 117.503539 100.423827 
L 118.512893 100.715905 
L 118.945474 101.53678 
L 119.089667 101.610406 
L 119.522248 101.452292 
L 119.810635 108.422018 
L 120.964183 120.438184 
L 121.540957 126.134316 
L 121.973537 129.380843 
L 122.406118 130.212236 
L 122.550311 133.263676 
L 123.127085 133.450844 
L 123.415472 133.75778 
L 123.703859 134.360399 
L 123.848053 134.329507 
L 125.145794 130.485583 
L 125.289988 130.203483 
L 125.434181 124.331903 
L 126.731923 117.893082 
L 126.876116 117.549737 
L 127.308697 117.532746 
L 127.885471 118.636898 
L 128.173858 119.646166 
L 128.318051 127.958772 
L 128.750632 128.438974 
L 129.327406 128.781755 
L 129.759986 128.702416 
L 130.480954 126.788153 
L 131.057728 124.94271 
L 131.201921 117.672325 
L 131.778695 116.610344 
L 131.922889 116.533505 
L 132.643856 117.002675 
L 132.932243 117.734649 
L 133.941598 120.636973 
L 134.085791 121.936971 
L 134.806759 120.20941 
L 134.950952 120.103469 
L 135.383533 119.171848 
L 136.392887 114.400814 
L 136.825468 112.705199 
L 136.969661 105.942378 
L 137.546435 105.424247 
L 137.979016 105.991095 
L 138.267403 106.314384 
L 139.420951 108.7851 
L 139.709338 108.351775 
L 139.853531 101.043877 
L 140.718692 96.342155 
L 141.583853 93.921431 
L 142.016434 93.794773 
L 142.593208 92.22307 
L 142.737401 87.288774 
L 143.458369 85.537651 
L 144.035143 85.91944 
L 144.900304 88.136177 
L 145.188691 87.965583 
L 145.477078 87.41607 
L 145.621271 83.704443 
L 146.486432 80.258514 
L 146.919013 79.37409 
L 147.2074 79.02437 
L 147.784173 77.609065 
L 148.216754 77.477602 
L 148.360947 77.597395 
L 148.505141 80.690368 
L 148.937721 82.530784 
L 150.812237 91.969239 
L 151.389011 93.831991 
L 152.830946 99.350248 
L 153.8403 105.506847 
L 154.128687 106.660107 
L 154.272881 110.899672 
L 155.138042 112.85792 
L 155.426429 112.870179 
L 155.570622 112.817932 
L 156.003203 113.162895 
L 156.435783 114.257386 
L 156.72417 114.64604 
L 157.012557 114.259789 
L 157.156751 109.701765 
L 158.454492 102.250856 
L 158.598686 102.205425 
L 159.031266 102.758567 
L 159.60804 104.156023 
L 159.896427 104.99867 
L 160.040621 115.987179 
L 161.049975 118.045508 
L 161.770943 119.111608 
L 162.347717 119.022315 
L 162.49191 118.696966 
L 162.780297 119.423105 
L 162.924491 126.350807 
L 163.933845 131.199856 
L 164.654813 132.434049 
L 165.087393 133.660053 
L 165.231587 133.651717 
L 165.37578 133.477078 
L 165.664167 132.932737 
L 165.808361 135.245044 
L 166.096748 136.017252 
L 166.385135 136.293222 
L 166.529328 136.361161 
L 166.817715 136.840113 
L 166.961909 136.927861 
L 167.106102 136.851489 
L 167.394489 135.99271 
L 167.82707 134.479555 
L 168.403844 132.875979 
L 168.548037 132.108307 
L 168.692231 130.447164 
L 169.989972 137.378079 
L 170.999327 143.217174 
L 171.431907 144.321963 
L 171.720294 144.75693 
L 172.008681 144.857722 
L 172.152875 144.715887 
L 172.585455 143.536001 
L 173.306423 141.030544 
L 173.59481 140.572996 
L 173.883197 140.400269 
L 174.171584 139.791374 
L 174.315777 139.426674 
L 174.459971 137.975794 
L 175.036745 137.484387 
L 175.469325 136.187208 
L 177.055454 130.39021 
L 177.199647 130.23999 
L 177.343841 132.20042 
L 177.776421 132.013645 
L 178.209002 132.359809 
L 178.497389 132.237908 
L 178.641582 132.082809 
L 178.929969 132.03956 
L 179.074163 131.916555 
L 179.650937 130.888482 
L 179.79513 131.264925 
L 180.083517 132.883408 
L 180.227711 142.728856 
L 180.948678 145.280185 
L 181.092872 145.462793 
L 181.669646 144.914971 
L 181.958033 144.257947 
L 182.390613 143.174611 
L 182.534807 143.100249 
L 182.679 143.154703 
L 182.967387 143.089608 
L 183.111581 134.318768 
L 183.976742 128.596034 
L 184.697709 122.871779 
L 185.13029 121.668822 
L 185.707064 121.494281 
L 185.851257 121.55837 
L 185.995451 123.325159 
L 187.293192 125.847852 
L 187.437386 125.809629 
L 187.581579 125.614248 
L 188.01416 125.555063 
L 188.735127 124.697804 
L 188.879321 122.057794 
L 189.023514 121.878447 
L 189.456095 122.024842 
L 190.032869 122.712488 
L 190.465449 124.033327 
L 191.042223 125.874331 
L 191.186417 126.068609 
L 191.618997 125.189505 
L 191.76319 120.203942 
L 192.195771 118.536351 
L 192.628351 117.883593 
L 193.060932 118.976884 
L 193.781899 122.010598 
L 194.502867 125.062847 
L 194.64706 127.761993 
L 195.079641 127.265217 
L 195.368028 126.604565 
L 195.800608 125.279411 
L 196.088995 123.831718 
L 197.09835 120.990713 
L 197.386737 120.409449 
L 197.53093 125.58875 
L 198.107704 128.921849 
L 198.972865 134.353363 
L 199.261252 135.087004 
L 199.838026 135.988345 
L 199.98222 136.113851 
L 200.270607 135.966844 
L 200.4148 138.206897 
L 200.558994 138.227664 
L 200.703187 138.361652 
L 201.424155 140.575962 
L 202.000929 142.706496 
L 202.289316 143.116504 
L 202.577703 143.499224 
L 202.721896 143.560371 
L 203.010283 143.458819 
L 203.154477 143.582266 
L 203.29867 144.146588 
L 203.875444 143.647801 
L 204.019638 143.674967 
L 204.452218 143.005856 
L 204.884799 142.55505 
L 206.18254 143.739767 
L 207.768669 140.331424 
L 208.345443 138.119835 
L 208.922217 135.568236 
L 209.06641 131.232587 
L 209.787378 129.468714 
L 210.508345 128.573992 
L 210.796732 128.096291 
L 210.940926 127.961812 
L 211.085119 127.670984 
L 211.5177 127.698664 
L 211.806087 128.059882 
L 211.95028 129.450449 
L 212.382861 129.169575 
L 213.103828 126.878525 
L 214.545763 121.695252 
L 214.689957 121.351098 
L 214.83415 117.993383 
L 215.266731 117.059923 
L 215.843505 115.98664 
L 216.131892 115.944101 
L 216.564472 115.504745 
L 216.852859 115.376199 
L 217.141246 115.113689 
L 217.573827 113.934293 
L 217.71802 105.197312 
L 218.583181 102.090609 
L 219.015762 102.065772 
L 219.159955 102.141581 
L 219.304149 102.05648 
L 219.448342 102.257525 
L 219.880923 101.962627 
L 220.16931 102.31318 
L 220.457697 102.43464 
L 220.746084 104.352802 
L 221.178664 105.466344 
L 221.467051 105.723485 
L 221.899632 105.751239 
L 222.188019 105.97886 
L 222.476406 105.774579 
L 222.908986 104.912981 
L 223.341567 103.28273 
L 223.629954 104.017572 
L 224.206728 104.959442 
L 224.495115 105.97229 
L 225.360276 109.902123 
L 225.792856 110.889031 
L 226.225437 111.441634 
L 226.36963 114.276338 
L 226.658017 114.514601 
L 227.090598 114.481085 
L 227.523178 114.668204 
L 229.109307 115.897199 
L 229.2535 115.795132 
L 230.983822 111.077964 
L 231.70479 110.421701 
L 231.993177 110.649837 
L 232.13737 115.120554 
L 232.569951 115.150466 
L 232.858338 115.32052 
L 233.290918 115.653862 
L 233.435112 115.786036 
L 233.579305 115.619145 
L 233.723499 115.734647 
L 234.011886 115.013388 
L 234.300273 114.270846 
L 234.444466 113.974453 
L 234.877047 111.86471 
L 235.02124 104.523518 
L 236.030594 101.480659 
L 237.039949 99.306484 
L 237.328336 98.951616 
L 237.616723 98.474479 
L 237.760916 98.339019 
L 237.90511 95.881371 
L 238.481884 95.645781 
L 238.770271 95.852759 
L 239.058658 95.675325 
L 239.202851 95.71318 
L 239.779625 96.489139 
L 240.212206 96.517064 
L 240.500593 96.202307 
L 240.644786 96.154375 
L 240.78898 91.717885 
L 241.509947 89.158685 
L 242.375108 87.191929 
L 242.951882 86.515218 
L 243.240269 86.703121 
L 243.528656 87.280119 
L 243.67285 88.641829 
L 244.393817 89.3587 
L 244.538011 89.407049 
L 244.970591 88.988214 
L 245.691559 88.870554 
L 245.979946 89.164275 
L 246.412526 89.931824 
L 246.55672 89.827183 
L 247.277687 89.131495 
L 247.710268 88.331558 
L 247.998655 87.756571 
L 248.287042 87.726929 
L 248.575429 87.840666 
L 248.863816 87.956536 
L 249.152203 87.901176 
L 249.296396 87.969359 
L 249.44059 89.539542 
L 250.017364 90.019107 
L 250.449944 90.482466 
L 250.882525 90.930648 
L 251.170912 91.445788 
L 251.891879 92.147507 
L 252.180266 92.475529 
L 252.32446 89.895734 
L 253.622201 85.806708 
L 253.910588 85.471748 
L 254.343169 85.615642 
L 254.775749 85.558295 
L 255.064136 86.028274 
L 255.20833 87.903873 
L 255.929297 87.074588 
L 256.073491 86.962984 
L 256.506071 86.234957 
L 257.803813 84.319762 
L 257.948006 84.171725 
L 258.0922 82.518893 
L 258.668974 81.8082 
L 258.957361 81.571139 
L 260.399296 80.920736 
L 260.831876 79.922745 
L 260.97607 74.072912 
L 262.129618 70.662484 
L 262.418005 70.112333 
L 262.706392 70.255688 
L 263.571553 71.805668 
L 263.715746 71.813342 
L 264.004133 67.924845 
L 265.446068 59.837263 
L 266.167036 57.407933 
L 266.311229 57.316654 
L 266.599616 57.483815 
L 266.74381 56.405505 
L 267.17639 55.777878 
L 268.329938 53.010426 
L 268.906712 52.624101 
L 269.050906 52.69383 
L 269.483486 53.632168 
L 269.62768 54.753924 
L 270.204454 53.695645 
L 270.492841 52.304318 
L 271.934776 44.003309 
L 272.367356 41.744769 
L 272.51155 35.990652 
L 273.232517 35.048293 
L 273.520904 34.901849 
L 274.097678 34.736036 
L 274.530259 35.230949 
L 274.674452 35.378324 
L 275.251226 36.802505 
L 275.39542 39.045819 
L 276.116387 40.068695 
L 276.404774 40.565275 
L 276.693161 40.797751 
L 277.125742 40.994603 
L 277.558322 41.440064 
L 278.135096 40.983055 
L 278.27929 37.970451 
L 279.144451 36.047705 
L 279.721225 35.133982 
L 280.297998 33.952158 
L 280.730579 33.392788 
L 281.018966 33.360965 
L 281.163159 35.109562 
L 282.172514 36.766611 
L 282.605094 37.131164 
L 283.037675 36.925142 
L 283.326062 36.760212 
L 283.902836 35.601263 
L 284.047029 28.177814 
L 285.344771 23.87546 
L 285.921545 22.414969 
L 286.786706 20.683411 
L 287.075093 23.222727 
L 288.084447 26.605131 
L 288.372834 27.225353 
L 288.661221 27.225942 
L 289.093802 27.062188 
L 289.237995 27.230575 
L 289.526382 27.082808 
L 289.670576 26.89108 
L 289.814769 24.577302 
L 290.391543 23.604123 
L 290.824124 22.638815 
L 291.112511 22.318639 
L 291.400898 22.218705 
L 291.689285 21.785699 
L 291.977672 21.638152 
L 292.266059 22.303831 
L 292.554446 23.243616 
L 292.698639 29.233985 
L 293.275413 30.72478 
L 294.140574 31.141261 
L 294.861542 31.848079 
L 295.294122 32.711983 
L 295.438316 32.878139 
L 295.582509 35.888389 
L 296.159283 37.154504 
L 296.44767 37.09272 
L 296.736057 36.919086 
L 297.024444 37.162277 
L 297.601218 37.816603 
L 298.322186 38.563214 
L 298.466379 44.444921 
L 299.187347 46.253439 
L 299.33154 46.343076 
L 299.619927 46.217399 
L 300.196701 45.666144 
L 300.773475 44.100889 
L 301.206056 41.927303 
L 301.350249 40.740331 
L 301.638636 40.713092 
L 302.071217 40.876649 
L 302.359604 41.27332 
L 302.792184 42.087256 
L 303.080571 41.032189 
L 304.089926 35.835407 
L 304.234119 29.491248 
L 305.09928 28.820299 
L 306.108635 28.883358 
L 306.397022 28.990255 
L 306.829602 29.512971 
L 306.973796 29.699575 
L 307.117989 32.93676 
L 307.406376 32.876986 
L 307.694763 32.670818 
L 308.848311 29.892087 
L 309.569279 28.494165 
L 309.857666 27.757116 
L 310.146053 28.108601 
L 310.722827 28.614351 
L 311.155407 29.242566 
L 311.299601 29.47899 
L 312.164762 31.894589 
L 312.741536 33.134471 
L 312.885729 39.910703 
L 314.039277 44.148208 
L 314.760245 45.507981 
L 315.048632 45.833477 
L 315.625406 46.816879 
L 316.923147 44.43325 
L 317.067341 44.159658 
L 317.211534 44.13693 
L 317.499921 44.399612 
L 318.220889 45.650698 
L 318.509276 45.599383 
L 318.509276 45.599383 
" clip-path="url(#p860b1d85a7)" style="fill: none; stroke: #000000; stroke-width: 1.5; stroke-linecap: square"/>
   </g>
   <g id="patch_3">
    <path d="M 52.191094 173.52 
L 52.191094 7.2 
" style="fill: none; stroke: #000000; stroke-width: 0.8; stroke-linejoin: miter; stroke-linecap: square"/>
   </g>
   <g id="patch_4">
    <path d="M 331.191094 173.52 
L 331.191094 7.2 
" style="fill: none; stroke: #000000; stroke-width: 0.8; stroke-linejoin: miter; stroke-linecap: square"/>
   </g>
   <g id="patch_5">
    <path d="M 52.191094 173.52 
L 331.191094 173.52 
" style="fill: none; stroke: #000000; stroke-width: 0.8; stroke-linejoin: miter; stroke-linecap: square"/>
   </g>
   <g id="patch_6">
    <path d="M 52.191094 7.2 
L 331.191094 7.2 
" style="fill: none; stroke: #000000; stroke-width: 0.8; stroke-linejoin: miter; stroke-linecap: square"/>
   </g>
   <g id="legend_1">
    <g id="patch_7">
     <path d="M 239.408125 168.02 
L 323.491094 168.02 
Q 325.691094 168.02 325.691094 165.82 
L 325.691094 135.793438 
Q 325.691094 133.593437 323.491094 133.593437 
L 239.408125 133.593437 
Q 237.208125 133.593437 237.208125 135.793438 
L 237.208125 165.82 
Q 237.208125 168.02 239.408125 168.02 
z
" style="fill: #ffffff; opacity: 0.8; stroke: #cccccc; stroke-linejoin: miter"/>
    </g>
    <g id="line2d_13">
     <path d="M 241.608125 141.843438 
L 252.608125 141.843438 
L 263.608125 141.843438 
" style="fill: none; stroke: #2e8b57; stroke-width: 1.5; stroke-linecap: square"/>
    </g>
    <g id="text_13">
     <!-- Supervised -->
     <g transform="translate(272.408125 145.693438) scale(0.11 -0.11)">
      <defs>
       <path id="TimesNewRomanPSMT-75" d="M 2709 2863 
L 2709 1128 
Q 2709 631 2732 520 
Q 2756 409 2807 365 
Q 2859 322 2928 322 
Q 3025 322 3147 375 
L 3191 266 
L 2334 -88 
L 2194 -88 
L 2194 519 
Q 1825 119 1631 15 
Q 1438 -88 1222 -88 
Q 981 -88 804 51 
Q 628 191 559 409 
Q 491 628 491 1028 
L 491 2306 
Q 491 2509 447 2587 
Q 403 2666 317 2708 
Q 231 2750 6 2747 
L 6 2863 
L 1009 2863 
L 1009 947 
Q 1009 547 1148 422 
Q 1288 297 1484 297 
Q 1619 297 1789 381 
Q 1959 466 2194 703 
L 2194 2325 
Q 2194 2569 2105 2655 
Q 2016 2741 1734 2747 
L 1734 2863 
L 2709 2863 
z
" transform="scale(0.015625)"/>
       <path id="TimesNewRomanPSMT-76" d="M 53 2863 
L 1400 2863 
L 1400 2747 
L 1313 2747 
Q 1191 2747 1127 2687 
Q 1063 2628 1063 2528 
Q 1063 2419 1128 2269 
L 1794 688 
L 2463 2328 
Q 2534 2503 2534 2594 
Q 2534 2638 2509 2666 
Q 2475 2713 2422 2730 
Q 2369 2747 2206 2747 
L 2206 2863 
L 3141 2863 
L 3141 2747 
Q 2978 2734 2916 2681 
Q 2806 2588 2719 2369 
L 1703 -88 
L 1575 -88 
L 553 2328 
Q 484 2497 421 2570 
Q 359 2644 263 2694 
Q 209 2722 53 2747 
L 53 2863 
z
" transform="scale(0.015625)"/>
       <path id="TimesNewRomanPSMT-73" d="M 2050 2947 
L 2050 1972 
L 1947 1972 
Q 1828 2431 1642 2597 
Q 1456 2763 1169 2763 
Q 950 2763 815 2647 
Q 681 2531 681 2391 
Q 681 2216 781 2091 
Q 878 1963 1175 1819 
L 1631 1597 
Q 2266 1288 2266 781 
Q 2266 391 1970 151 
Q 1675 -88 1309 -88 
Q 1047 -88 709 6 
Q 606 38 541 38 
Q 469 38 428 -44 
L 325 -44 
L 325 978 
L 428 978 
Q 516 541 762 319 
Q 1009 97 1316 97 
Q 1531 97 1667 223 
Q 1803 350 1803 528 
Q 1803 744 1651 891 
Q 1500 1038 1047 1263 
Q 594 1488 453 1669 
Q 313 1847 313 2119 
Q 313 2472 555 2709 
Q 797 2947 1181 2947 
Q 1350 2947 1591 2875 
Q 1750 2828 1803 2828 
Q 1853 2828 1881 2850 
Q 1909 2872 1947 2947 
L 2050 2947 
z
" transform="scale(0.015625)"/>
       <path id="TimesNewRomanPSMT-64" d="M 2222 322 
Q 2013 103 1813 7 
Q 1613 -88 1381 -88 
Q 913 -88 563 304 
Q 213 697 213 1313 
Q 213 1928 600 2439 
Q 988 2950 1597 2950 
Q 1975 2950 2222 2709 
L 2222 3238 
Q 2222 3728 2198 3840 
Q 2175 3953 2125 3993 
Q 2075 4034 2000 4034 
Q 1919 4034 1784 3984 
L 1744 4094 
L 2597 4444 
L 2738 4444 
L 2738 1134 
Q 2738 631 2761 520 
Q 2784 409 2836 365 
Q 2888 322 2956 322 
Q 3041 322 3181 375 
L 3216 266 
L 2366 -88 
L 2222 -88 
L 2222 322 
z
M 2222 541 
L 2222 2016 
Q 2203 2228 2109 2403 
Q 2016 2578 1861 2667 
Q 1706 2756 1559 2756 
Q 1284 2756 1069 2509 
Q 784 2184 784 1559 
Q 784 928 1059 592 
Q 1334 256 1672 256 
Q 1956 256 2222 541 
z
" transform="scale(0.015625)"/>
      </defs>
      <use xlink:href="#TimesNewRomanPSMT-53"/>
      <use xlink:href="#TimesNewRomanPSMT-75" x="55.615234"/>
      <use xlink:href="#TimesNewRomanPSMT-70" x="105.615234"/>
      <use xlink:href="#TimesNewRomanPSMT-65" x="155.615234"/>
      <use xlink:href="#TimesNewRomanPSMT-72" x="200"/>
      <use xlink:href="#TimesNewRomanPSMT-76" x="233.300781"/>
      <use xlink:href="#TimesNewRomanPSMT-69" x="283.300781"/>
      <use xlink:href="#TimesNewRomanPSMT-73" x="311.083984"/>
      <use xlink:href="#TimesNewRomanPSMT-65" x="350"/>
      <use xlink:href="#TimesNewRomanPSMT-64" x="394.384766"/>
     </g>
    </g>
    <g id="line2d_14">
     <path d="M 241.608125 157.396406 
L 252.608125 157.396406 
L 263.608125 157.396406 
" style="fill: none; stroke: #000000; stroke-width: 1.5; stroke-linecap: square"/>
    </g>
    <g id="text_14">
     <!-- Target -->
     <g transform="translate(272.408125 161.246406) scale(0.11 -0.11)">
      <defs>
       <path id="TimesNewRomanPSMT-67" d="M 966 1044 
Q 703 1172 562 1401 
Q 422 1631 422 1909 
Q 422 2334 742 2640 
Q 1063 2947 1563 2947 
Q 1972 2947 2272 2747 
L 2878 2747 
Q 3013 2747 3034 2739 
Q 3056 2731 3066 2713 
Q 3084 2684 3084 2613 
Q 3084 2531 3069 2500 
Q 3059 2484 3036 2475 
Q 3013 2466 2878 2466 
L 2506 2466 
Q 2681 2241 2681 1891 
Q 2681 1491 2375 1206 
Q 2069 922 1553 922 
Q 1341 922 1119 984 
Q 981 866 932 777 
Q 884 688 884 625 
Q 884 572 936 522 
Q 988 472 1138 450 
Q 1225 438 1575 428 
Q 2219 413 2409 384 
Q 2700 344 2873 169 
Q 3047 -6 3047 -263 
Q 3047 -616 2716 -925 
Q 2228 -1381 1444 -1381 
Q 841 -1381 425 -1109 
Q 191 -953 191 -784 
Q 191 -709 225 -634 
Q 278 -519 444 -313 
Q 466 -284 763 25 
Q 600 122 533 198 
Q 466 275 466 372 
Q 466 481 555 628 
Q 644 775 966 1044 
z
M 1509 2797 
Q 1278 2797 1122 2612 
Q 966 2428 966 2047 
Q 966 1553 1178 1281 
Q 1341 1075 1591 1075 
Q 1828 1075 1981 1253 
Q 2134 1431 2134 1813 
Q 2134 2309 1919 2591 
Q 1759 2797 1509 2797 
z
M 934 0 
Q 788 -159 713 -296 
Q 638 -434 638 -550 
Q 638 -700 819 -813 
Q 1131 -1006 1722 -1006 
Q 2284 -1006 2551 -807 
Q 2819 -609 2819 -384 
Q 2819 -222 2659 -153 
Q 2497 -84 2016 -72 
Q 1313 -53 934 0 
z
" transform="scale(0.015625)"/>
       <path id="TimesNewRomanPSMT-74" d="M 1031 3803 
L 1031 2863 
L 1700 2863 
L 1700 2644 
L 1031 2644 
L 1031 788 
Q 1031 509 1111 412 
Q 1191 316 1316 316 
Q 1419 316 1516 380 
Q 1613 444 1666 569 
L 1788 569 
Q 1678 263 1478 108 
Q 1278 -47 1066 -47 
Q 922 -47 784 33 
Q 647 113 581 261 
Q 516 409 516 719 
L 516 2644 
L 63 2644 
L 63 2747 
Q 234 2816 414 2980 
Q 594 3144 734 3369 
Q 806 3488 934 3803 
L 1031 3803 
z
" transform="scale(0.015625)"/>
      </defs>
      <use xlink:href="#TimesNewRomanPSMT-54"/>
      <use xlink:href="#TimesNewRomanPSMT-61" x="54.083984"/>
      <use xlink:href="#TimesNewRomanPSMT-72" x="98.46875"/>
      <use xlink:href="#TimesNewRomanPSMT-67" x="130.019531"/>
      <use xlink:href="#TimesNewRomanPSMT-65" x="180.019531"/>
      <use xlink:href="#TimesNewRomanPSMT-74" x="224.404297"/>
     </g>
    </g>
   </g>
  </g>
 </g>
 <defs>
  <clipPath id="p860b1d85a7">
   <rect x="52.191094" y="7.2" width="279" height="166.32"/>
  </clipPath>
 </defs>
</svg>
